<?xml version="1.0" encoding="utf-8"?>
<!-- Generator: Adobe Illustrator 19.0.0, SVG Export Plug-In . SVG Version: 6.00 Build 0)  -->
<svg version="1.1" xmlns="http://www.w3.org/2000/svg" xmlns:xlink="http://www.w3.org/1999/xlink" x="0px" y="0px" width="1400px"
	 height="980px" viewBox="0 0 1400 980" enable-background="new 0 0 1400 980" xml:space="preserve">
<g id="Background">
	<g id="XMLID_2_">
		<radialGradient id="XMLID_4_" cx="1188.8003" cy="124.1087" r="1787.4657" gradientUnits="userSpaceOnUse">
			<stop  offset="0" style="stop-color:#FFECE4"/>
			<stop  offset="0.428" style="stop-color:#FFCFB9"/>
			<stop  offset="1" style="stop-color:#FF7F8C"/>
		</radialGradient>
		<rect id="XMLID_21_" fill="url(#XMLID_4_)" width="1400" height="980"/>
		<path id="XMLID_9_" fill="#FFFFFF" d="M648.2,416.3c0,0-382.2,125.3-648.2,213.1V520.1c8.4-2.4,16.5-5.7,23.9-10.4
			c22.2-14.1,34.8-39,53.3-57.7c30.7-31.2,76.8-43.5,120.5-41.7c43.7,1.8,85.8,16.3,126.5,32.4c14.5,5.7,29.3,11.8,44.9,12.4
			c30.7,1.3,57.8-18,85.5-31.3C514.1,395.5,586.2,395.1,648.2,416.3z"/>
		<path id="XMLID_15_" fill="#FFFFFF" d="M1400,348.2V451c-150.4,48.9-376.6,124.2-382.3,126.2c4.4-1.7,13.3-21.2,16.3-25.1
			c10.3-13.2,22.4-28.1,36.3-37.7c29.2-20.2,67.4-21.8,99.8-34.2c22.3-8.5,42.6-22.2,58.8-39.6c16.4-17.6,28.8-39,47.3-54.5
			C1306.7,360.6,1355.2,347.7,1400,348.2z"/>
		<path id="XMLID_13_" fill="#FFFFFF" d="M870.1,0C738.5,42.7,525.6,113.6,522.8,114.5c3.8-1.3,11.6-18.6,14.3-22
			c9-11.6,19.5-24.5,31.7-32.9c25.5-17.6,58.8-19,87.2-29.9C673.3,23.2,689.3,13,702.7,0H870.1z"/>
		<circle id="XMLID_181_" fill="#FFFFFF" cx="1232.4" cy="115.3" r="92.2"/>
	</g>
</g>
<g id="Object">
	<g id="XMLID_1_">
		<g id="XMLID_148_">
			<defs>
				<rect id="XMLID_146_" x="0" width="1400" height="980"/>
			</defs>
			<clipPath id="XMLID_5_">
				<use xlink:href="#XMLID_146_"  overflow="visible"/>
			</clipPath>
			<g id="XMLID_219_" clip-path="url(#XMLID_5_)">
				<g id="XMLID_232_">
					<linearGradient id="XMLID_6_" gradientUnits="userSpaceOnUse" x1="493.2129" y1="148.8317" x2="495.0695" y2="149.419">
						<stop  offset="0" style="stop-color:#00364F"/>
						<stop  offset="0.2519" style="stop-color:#0F4565"/>
						<stop  offset="1" style="stop-color:#FF7F8C"/>
					</linearGradient>
					<path id="XMLID_352_" fill="url(#XMLID_6_)" d="M494.1,149.1C494.1,149.1,494.1,149.1,494.1,149.1
						C494.1,149.1,494.1,149.1,494.1,149.1z"/>
					<linearGradient id="XMLID_8_" gradientUnits="userSpaceOnUse" x1="459.2435" y1="138.1367" x2="529.0102" y2="160.2058">
						<stop  offset="0" style="stop-color:#00364F"/>
						<stop  offset="0.2519" style="stop-color:#0F4565"/>
						<stop  offset="1" style="stop-color:#FF7F8C"/>
					</linearGradient>
					<path id="XMLID_351_" fill="url(#XMLID_8_)" d="M494.1,149.2C494.1,149.2,494.1,149.1,494.1,149.2
						C494.1,149.1,494.1,149.2,494.1,149.2z"/>
					<linearGradient id="XMLID_10_" gradientUnits="userSpaceOnUse" x1="493.3111" y1="148.9636" x2="494.9307" y2="149.4759">
						<stop  offset="0" style="stop-color:#00364F"/>
						<stop  offset="0.2519" style="stop-color:#0F4565"/>
						<stop  offset="1" style="stop-color:#FF7F8C"/>
					</linearGradient>
					<path id="XMLID_350_" fill="url(#XMLID_10_)" d="M494.1,149.2C494.1,149.2,494.1,149.2,494.1,149.2
						C494.1,149.2,494.1,149.2,494.1,149.2z"/>
					<linearGradient id="XMLID_14_" gradientUnits="userSpaceOnUse" x1="83.308" y1="19.1749" x2="671.308" y2="205.1749">
						<stop  offset="0" style="stop-color:#00364F"/>
						<stop  offset="0.2519" style="stop-color:#0F4565"/>
						<stop  offset="1" style="stop-color:#FF7F8C"/>
					</linearGradient>
					<path id="XMLID_315_" fill="url(#XMLID_14_)" d="M494.2,149.1C494.2,149.2,494.2,149.2,494.2,149.1c0.1,0,0.1,0,0.1,0
						c0.2,0.1,0.4,0.1,0.4,0.1s-0.1,0-0.4-0.1C494.3,149.2,494.3,149.2,494.2,149.1C494.2,149.1,494.2,149.1,494.2,149.1
						C494.2,149.1,494.2,149.1,494.2,149.1C494.1,149.1,494.1,149.1,494.2,149.1C494.1,149.1,494.1,149.1,494.2,149.1
						C494.2,149.1,494.2,149.1,494.2,149.1z"/>
					<linearGradient id="XMLID_16_" gradientUnits="userSpaceOnUse" x1="72.0274" y1="54.8359" x2="660.0274" y2="240.836">
						<stop  offset="0" style="stop-color:#00364F"/>
						<stop  offset="0.2519" style="stop-color:#0F4565"/>
						<stop  offset="1" style="stop-color:#FF7F8C"/>
					</linearGradient>
					<path id="XMLID_311_" fill="url(#XMLID_16_)" d="M548.1,205.4C548.2,205.4,548.2,205.5,548.1,205.4c0.1,0,0.1,0,0.2,0.1
						c0.2,0.1,0.4,0.1,0.4,0.1s-0.1,0-0.4-0.1C548.2,205.5,548.2,205.5,548.1,205.4C548.2,205.4,548.2,205.4,548.1,205.4
						C548.1,205.4,548.1,205.4,548.1,205.4C548.1,205.4,548.1,205.4,548.1,205.4C548.1,205.4,548.1,205.4,548.1,205.4
						C548.1,205.4,548.1,205.4,548.1,205.4z"/>
					<linearGradient id="XMLID_17_" gradientUnits="userSpaceOnUse" x1="547.5843" y1="205.2534" x2="548.6137" y2="205.579">
						<stop  offset="0" style="stop-color:#00364F"/>
						<stop  offset="0.2519" style="stop-color:#0F4565"/>
						<stop  offset="1" style="stop-color:#FF7F8C"/>
					</linearGradient>
					<path id="XMLID_307_" fill="url(#XMLID_17_)" d="M548.1,205.4C548.1,205.4,548.1,205.4,548.1,205.4
						C548.1,205.4,548.1,205.4,548.1,205.4z"/>
					<linearGradient id="XMLID_19_" gradientUnits="userSpaceOnUse" x1="507.235" y1="192.5451" x2="588.9313" y2="218.3878">
						<stop  offset="0" style="stop-color:#00364F"/>
						<stop  offset="0.2519" style="stop-color:#0F4565"/>
						<stop  offset="1" style="stop-color:#FF7F8C"/>
					</linearGradient>
					<path id="XMLID_303_" fill="url(#XMLID_19_)" d="M548.1,205.5C548.1,205.5,548.1,205.4,548.1,205.5
						C548.1,205.4,548.1,205.5,548.1,205.5z"/>
					<linearGradient id="XMLID_20_" gradientUnits="userSpaceOnUse" x1="547.5042" y1="205.3387" x2="548.6507" y2="205.7014">
						<stop  offset="0" style="stop-color:#00364F"/>
						<stop  offset="0.2519" style="stop-color:#0F4565"/>
						<stop  offset="1" style="stop-color:#FF7F8C"/>
					</linearGradient>
					<path id="XMLID_299_" fill="url(#XMLID_20_)" d="M548.1,205.5C548.1,205.5,548.1,205.5,548.1,205.5
						C548.1,205.5,548.1,205.5,548.1,205.5z"/>
					<linearGradient id="XMLID_22_" gradientUnits="userSpaceOnUse" x1="60.2153" y1="92.1776" x2="648.2153" y2="278.1776">
						<stop  offset="0" style="stop-color:#00364F"/>
						<stop  offset="0.2519" style="stop-color:#0F4565"/>
						<stop  offset="1" style="stop-color:#FF7F8C"/>
					</linearGradient>
					<path id="XMLID_295_" fill="url(#XMLID_22_)" d="M548.3,246.6C548.4,246.6,548.4,246.6,548.3,246.6c0.1,0,0.1,0,0.1,0.1
						c0.2,0.1,0.4,0.1,0.4,0.1s-0.1-0.1-0.4-0.2C548.4,246.6,548.4,246.6,548.3,246.6C548.4,246.6,548.4,246.6,548.3,246.6
						C548.3,246.5,548.3,246.5,548.3,246.6C548.3,246.5,548.3,246.5,548.3,246.6C548.3,246.5,548.3,246.5,548.3,246.6
						C548.3,246.6,548.3,246.6,548.3,246.6z"/>
					<linearGradient id="XMLID_23_" gradientUnits="userSpaceOnUse" x1="546.3421" y1="246.0459" x2="550.2034" y2="247.2673">
						<stop  offset="0" style="stop-color:#00364F"/>
						<stop  offset="0.2519" style="stop-color:#0F4565"/>
						<stop  offset="1" style="stop-color:#FF7F8C"/>
					</linearGradient>
					<path id="XMLID_291_" fill="url(#XMLID_23_)" d="M548.3,246.7C548.3,246.7,548.3,246.7,548.3,246.7
						C548.3,246.7,548.3,246.7,548.3,246.7z"/>
					<linearGradient id="XMLID_24_" gradientUnits="userSpaceOnUse" x1="546.2925" y1="245.9076" x2="550.324" y2="247.1829">
						<stop  offset="0" style="stop-color:#00364F"/>
						<stop  offset="0.2519" style="stop-color:#0F4565"/>
						<stop  offset="1" style="stop-color:#FF7F8C"/>
					</linearGradient>
					<path id="XMLID_287_" fill="url(#XMLID_24_)" d="M548.3,246.5C548.3,246.5,548.3,246.5,548.3,246.5
						C548.3,246.5,548.3,246.5,548.3,246.5z"/>
					<linearGradient id="XMLID_26_" gradientUnits="userSpaceOnUse" x1="545.4121" y1="245.6907" x2="551.1691" y2="247.5118">
						<stop  offset="0" style="stop-color:#00364F"/>
						<stop  offset="0.2519" style="stop-color:#0F4565"/>
						<stop  offset="1" style="stop-color:#FF7F8C"/>
					</linearGradient>
					<path id="XMLID_283_" fill="url(#XMLID_26_)" d="M548.3,246.7c0,0,0-0.1,0-0.1S548.3,246.6,548.3,246.7z"/>
					<linearGradient id="XMLID_27_" gradientUnits="userSpaceOnUse" x1="434.4048" y1="309.2687" x2="683.2944" y2="387.9991">
						<stop  offset="0" style="stop-color:#00364F"/>
						<stop  offset="0.2519" style="stop-color:#0F4565"/>
						<stop  offset="1" style="stop-color:#FF7F8C"/>
					</linearGradient>
					<path id="XMLID_281_" fill="url(#XMLID_27_)" d="M558.9,348.6C558.9,348.6,558.8,348.7,558.9,348.6
						C558.8,348.7,558.9,348.6,558.9,348.6z"/>
					<linearGradient id="XMLID_28_" gradientUnits="userSpaceOnUse" x1="557.7435" y1="348.3309" x2="559.9282" y2="349.0219">
						<stop  offset="0" style="stop-color:#00364F"/>
						<stop  offset="0.2519" style="stop-color:#0F4565"/>
						<stop  offset="1" style="stop-color:#FF7F8C"/>
					</linearGradient>
					<path id="XMLID_280_" fill="url(#XMLID_28_)" d="M558.8,348.7C558.8,348.7,558.8,348.7,558.8,348.7
						C558.8,348.7,558.8,348.7,558.8,348.7z"/>
					<linearGradient id="XMLID_29_" gradientUnits="userSpaceOnUse" x1="31.8184" y1="181.9482" x2="619.8184" y2="367.9482">
						<stop  offset="0" style="stop-color:#00364F"/>
						<stop  offset="0.2519" style="stop-color:#0F4565"/>
						<stop  offset="1" style="stop-color:#FF7F8C"/>
					</linearGradient>
					<path id="XMLID_276_" fill="url(#XMLID_29_)" d="M559,348.7C559,348.7,559,348.7,559,348.7c-0.1-0.1-0.1-0.1-0.1-0.1
						c0,0,0,0,0,0c0,0,0,0,0,0c0,0,0,0,0,0c0,0,0,0,0,0C558.9,348.6,558.9,348.6,559,348.7C559,348.7,559,348.7,559,348.7
						c0.2,0.1,0.3,0.2,0.3,0.2S559.2,348.8,559,348.7z"/>
					<linearGradient id="XMLID_30_" gradientUnits="userSpaceOnUse" x1="555.767" y1="347.6113" x2="562.0218" y2="349.5898">
						<stop  offset="0" style="stop-color:#00364F"/>
						<stop  offset="0.2519" style="stop-color:#0F4565"/>
						<stop  offset="1" style="stop-color:#FF7F8C"/>
					</linearGradient>
					<path id="XMLID_275_" fill="url(#XMLID_30_)" d="M558.9,348.6C558.9,348.6,558.9,348.6,558.9,348.6
						C558.9,348.6,558.9,348.6,558.9,348.6z"/>
					<linearGradient id="XMLID_34_" gradientUnits="userSpaceOnUse" x1="506.7385" y1="352.5393" x2="528.0916" y2="359.2939">
						<stop  offset="0" style="stop-color:#00364F"/>
						<stop  offset="0.2519" style="stop-color:#0F4565"/>
						<stop  offset="1" style="stop-color:#FF7F8C"/>
					</linearGradient>
					<path id="XMLID_274_" fill="url(#XMLID_34_)" d="M517.4,355.9C517.4,355.9,517.4,355.9,517.4,355.9
						C517.4,355.9,517.4,355.9,517.4,355.9z"/>
					<linearGradient id="XMLID_41_" gradientUnits="userSpaceOnUse" x1="25.9478" y1="200.5069" x2="613.9478" y2="386.5069">
						<stop  offset="0" style="stop-color:#00364F"/>
						<stop  offset="0.2519" style="stop-color:#0F4565"/>
						<stop  offset="1" style="stop-color:#FF7F8C"/>
					</linearGradient>
					<path id="XMLID_273_" fill="url(#XMLID_41_)" d="M517.4,355.9C517.4,356,517.5,356,517.4,355.9c0.1,0,0.1,0,0.1,0.1
						c0.2,0.1,0.3,0.2,0.3,0.2s-0.1-0.1-0.3-0.2C517.5,356,517.5,356,517.4,355.9C517.5,355.9,517.5,355.9,517.4,355.9
						C517.4,355.9,517.4,355.9,517.4,355.9C517.4,355.9,517.4,355.9,517.4,355.9C517.4,355.9,517.4,355.9,517.4,355.9
						C517.4,355.9,517.4,355.9,517.4,355.9z"/>
					<linearGradient id="XMLID_46_" gradientUnits="userSpaceOnUse" x1="507.7218" y1="352.9803" x2="526.98" y2="359.0722">
						<stop  offset="0" style="stop-color:#00364F"/>
						<stop  offset="0.2519" style="stop-color:#0F4565"/>
						<stop  offset="1" style="stop-color:#FF7F8C"/>
					</linearGradient>
					<path id="XMLID_272_" fill="url(#XMLID_46_)" d="M517.4,356C517.4,356,517.3,356,517.4,356C517.4,356,517.4,356,517.4,356z"/>
					<linearGradient id="XMLID_47_" gradientUnits="userSpaceOnUse" x1="420.1258" y1="325.2066" x2="614.6182" y2="386.7297">
						<stop  offset="0" style="stop-color:#00364F"/>
						<stop  offset="0.2519" style="stop-color:#0F4565"/>
						<stop  offset="1" style="stop-color:#FF7F8C"/>
					</linearGradient>
					<path id="XMLID_271_" fill="url(#XMLID_47_)" d="M517.4,355.9l-0.1,0.1L517.4,355.9z"/>
					<linearGradient id="XMLID_48_" gradientUnits="userSpaceOnUse" x1="11.766" y1="245.3398" x2="599.766" y2="431.3398">
						<stop  offset="0" style="stop-color:#00364F"/>
						<stop  offset="0.2519" style="stop-color:#0F4565"/>
						<stop  offset="1" style="stop-color:#FF7F8C"/>
					</linearGradient>
					<path id="XMLID_270_" fill="url(#XMLID_48_)" d="M449.5,383.8C449.5,383.8,449.6,383.8,449.5,383.8
						C449.6,383.8,449.6,383.8,449.5,383.8c0.2,0.2,0.3,0.2,0.3,0.2S449.7,383.9,449.5,383.8C449.6,383.8,449.6,383.8,449.5,383.8
						C449.6,383.8,449.6,383.8,449.5,383.8C449.5,383.7,449.5,383.7,449.5,383.8C449.5,383.7,449.5,383.7,449.5,383.8
						C449.5,383.7,449.5,383.7,449.5,383.8C449.5,383.8,449.5,383.8,449.5,383.8z"/>
					<linearGradient id="XMLID_49_" gradientUnits="userSpaceOnUse" x1="441.095" y1="381.1707" x2="457.7669" y2="386.4445">
						<stop  offset="0" style="stop-color:#00364F"/>
						<stop  offset="0.2519" style="stop-color:#0F4565"/>
						<stop  offset="1" style="stop-color:#FF7F8C"/>
					</linearGradient>
					<path id="XMLID_269_" fill="url(#XMLID_49_)" d="M449.4,383.8C449.4,383.8,449.4,383.8,449.4,383.8
						C449.4,383.8,449.4,383.8,449.4,383.8z"/>
					<linearGradient id="XMLID_50_" gradientUnits="userSpaceOnUse" x1="435.2583" y1="379.22" x2="463.7964" y2="388.2473">
						<stop  offset="0" style="stop-color:#00364F"/>
						<stop  offset="0.2519" style="stop-color:#0F4565"/>
						<stop  offset="1" style="stop-color:#FF7F8C"/>
					</linearGradient>
					<path id="XMLID_268_" fill="url(#XMLID_50_)" d="M449.5,383.7C449.5,383.7,449.5,383.7,449.5,383.7
						C449.5,383.7,449.5,383.7,449.5,383.7z"/>
					<linearGradient id="XMLID_55_" gradientUnits="userSpaceOnUse" x1="11.7743" y1="245.3136" x2="525.9278" y2="407.9539">
						<stop  offset="0" style="stop-color:#00364F"/>
						<stop  offset="0.2519" style="stop-color:#0F4565"/>
						<stop  offset="1" style="stop-color:#FF7F8C"/>
					</linearGradient>
					<path id="XMLID_267_" fill="url(#XMLID_55_)" d="M449.4,383.8C449.4,383.8,449.5,383.7,449.4,383.8
						C449.5,383.7,449.5,383.8,449.4,383.8z"/>
					<linearGradient id="XMLID_56_" gradientUnits="userSpaceOnUse" x1="6.5695" y1="261.7674" x2="585.7569" y2="444.9797">
						<stop  offset="0" style="stop-color:#00364F"/>
						<stop  offset="0.2519" style="stop-color:#0F4565"/>
						<stop  offset="1" style="stop-color:#FF7F8C"/>
					</linearGradient>
					<path id="XMLID_266_" fill="url(#XMLID_56_)" d="M364.3,375L364.3,375L364.3,375z"/>
					<linearGradient id="XMLID_57_" gradientUnits="userSpaceOnUse" x1="6.5582" y1="261.8033" x2="594.5582" y2="447.8033">
						<stop  offset="0" style="stop-color:#00364F"/>
						<stop  offset="0.2519" style="stop-color:#0F4565"/>
						<stop  offset="1" style="stop-color:#FF7F8C"/>
					</linearGradient>
					<path id="XMLID_265_" fill="url(#XMLID_57_)" d="M364.4,374.9C364.4,374.9,364.4,375,364.4,374.9
						C364.4,375,364.4,375,364.4,374.9c0.2,0.2,0.2,0.2,0.2,0.2S364.6,375.1,364.4,374.9C364.5,375,364.5,375,364.4,374.9
						C364.4,374.9,364.4,374.9,364.4,374.9C364.4,374.9,364.4,374.9,364.4,374.9C364.4,374.9,364.4,374.9,364.4,374.9
						C364.4,374.9,364.4,374.9,364.4,374.9C364.4,374.9,364.4,374.9,364.4,374.9z"/>
					<linearGradient id="XMLID_58_" gradientUnits="userSpaceOnUse" x1="351.6888" y1="370.979" x2="376.9224" y2="378.961">
						<stop  offset="0" style="stop-color:#00364F"/>
						<stop  offset="0.2519" style="stop-color:#0F4565"/>
						<stop  offset="1" style="stop-color:#FF7F8C"/>
					</linearGradient>
					<path id="XMLID_264_" fill="url(#XMLID_58_)" d="M364.3,375C364.3,375,364.3,375,364.3,375C364.3,375,364.3,375,364.3,375z"/>
					<linearGradient id="XMLID_59_" gradientUnits="userSpaceOnUse" x1="348.4326" y1="369.8663" x2="380.3773" y2="379.9713">
						<stop  offset="0" style="stop-color:#00364F"/>
						<stop  offset="0.2519" style="stop-color:#0F4565"/>
						<stop  offset="1" style="stop-color:#FF7F8C"/>
					</linearGradient>
					<path id="XMLID_263_" fill="url(#XMLID_59_)" d="M364.4,374.9C364.4,374.9,364.4,374.9,364.4,374.9
						C364.4,374.9,364.4,374.9,364.4,374.9z"/>
					<linearGradient id="XMLID_60_" gradientUnits="userSpaceOnUse" x1="404.6597" y1="45.5975" x2="480.749" y2="69.6665">
						<stop  offset="0" style="stop-color:#00364F"/>
						<stop  offset="0.2519" style="stop-color:#0F4565"/>
						<stop  offset="1" style="stop-color:#FF7F8C"/>
					</linearGradient>
					<path id="XMLID_262_" fill="url(#XMLID_60_)" d="M442.7,57.7L442.7,57.7L442.7,57.7z"/>
					<linearGradient id="XMLID_61_" gradientUnits="userSpaceOnUse" x1="354.9992" y1="29.8344" x2="530.3967" y2="85.3173">
						<stop  offset="0" style="stop-color:#00364F"/>
						<stop  offset="0.2519" style="stop-color:#0F4565"/>
						<stop  offset="1" style="stop-color:#FF7F8C"/>
					</linearGradient>
					<path id="XMLID_261_" fill="url(#XMLID_61_)" d="M442.7,57.6L442.7,57.6C442.7,57.5,442.7,57.6,442.7,57.6z"/>
					<linearGradient id="XMLID_62_" gradientUnits="userSpaceOnUse" x1="104.9855" y1="-49.3542" x2="692.9855" y2="136.6458">
						<stop  offset="0" style="stop-color:#00364F"/>
						<stop  offset="0.2519" style="stop-color:#0F4565"/>
						<stop  offset="1" style="stop-color:#FF7F8C"/>
					</linearGradient>
					<path id="XMLID_260_" fill="url(#XMLID_62_)" d="M442.7,57.5C442.8,57.5,442.8,57.5,442.7,57.5c0.1,0,0.1,0,0.2,0
						c0.3,0.1,0.4,0.1,0.4,0.1s-0.1,0-0.4-0.1C442.9,57.5,442.8,57.5,442.7,57.5C442.8,57.5,442.8,57.5,442.7,57.5
						C442.7,57.5,442.7,57.5,442.7,57.5C442.7,57.5,442.7,57.5,442.7,57.5C442.7,57.5,442.7,57.5,442.7,57.5z"/>
					<linearGradient id="XMLID_63_" gradientUnits="userSpaceOnUse" x1="412.6768" y1="48.1658" x2="472.7322" y2="67.1629">
						<stop  offset="0" style="stop-color:#00364F"/>
						<stop  offset="0.2519" style="stop-color:#0F4565"/>
						<stop  offset="1" style="stop-color:#FF7F8C"/>
					</linearGradient>
					<path id="XMLID_259_" fill="url(#XMLID_63_)" d="M442.7,57.7C442.7,57.7,442.7,57.7,442.7,57.7L442.7,57.7
						C442.7,57.7,442.7,57.7,442.7,57.7z"/>
					<linearGradient id="XMLID_64_" gradientUnits="userSpaceOnUse" x1="413.3395" y1="48.2039" x2="472.0721" y2="66.7825">
						<stop  offset="0" style="stop-color:#00364F"/>
						<stop  offset="0.2519" style="stop-color:#0F4565"/>
						<stop  offset="1" style="stop-color:#FF7F8C"/>
					</linearGradient>
					<path id="XMLID_258_" fill="url(#XMLID_64_)" d="M442.7,57.5C442.7,57.5,442.7,57.5,442.7,57.5
						C442.7,57.5,442.7,57.5,442.7,57.5L442.7,57.5z"/>
					<linearGradient id="XMLID_65_" gradientUnits="userSpaceOnUse" x1="405.4001" y1="45.724" x2="480.008" y2="69.3244">
						<stop  offset="0" style="stop-color:#00364F"/>
						<stop  offset="0.2519" style="stop-color:#0F4565"/>
						<stop  offset="1" style="stop-color:#FF7F8C"/>
					</linearGradient>
					<path id="XMLID_257_" fill="url(#XMLID_65_)" d="M442.7,57.5L442.7,57.5L442.7,57.5z"/>
					<linearGradient id="XMLID_66_" gradientUnits="userSpaceOnUse" x1="190.3305" y1="-69.3517" x2="252.149" y2="-49.7969">
						<stop  offset="0" style="stop-color:#00364F"/>
						<stop  offset="0.2519" style="stop-color:#0F4565"/>
						<stop  offset="1" style="stop-color:#FF7F8C"/>
					</linearGradient>
					<path id="XMLID_248_" fill="url(#XMLID_66_)" d="M221.2-59.6C221.2-59.6,221.2-59.6,221.2-59.6
						C221.2-59.6,221.2-59.6,221.2-59.6z"/>
					<linearGradient id="XMLID_67_" gradientUnits="userSpaceOnUse" x1="118.5523" y1="-92.2428" x2="706.5523" y2="93.7572">
						<stop  offset="0" style="stop-color:#00364F"/>
						<stop  offset="0.2519" style="stop-color:#0F4565"/>
						<stop  offset="1" style="stop-color:#FF7F8C"/>
					</linearGradient>
					<path id="XMLID_247_" fill="url(#XMLID_67_)" d="M221.2-59.7C221.2-59.7,221.2-59.7,221.2-59.7c0.1,0,0.1,0,0.1,0
						c0.2,0,0.3,0,0.3,0S221.5-59.7,221.2-59.7C221.3-59.7,221.2-59.7,221.2-59.7C221.2-59.7,221.2-59.7,221.2-59.7
						C221.2-59.7,221.2-59.7,221.2-59.7C221.2-59.7,221.2-59.7,221.2-59.7C221.2-59.7,221.2-59.7,221.2-59.7
						C221.2-59.7,221.2-59.7,221.2-59.7z"/>
					<linearGradient id="XMLID_68_" gradientUnits="userSpaceOnUse" x1="191.5402" y1="-69.0792" x2="250.7805" y2="-50.3399">
						<stop  offset="0" style="stop-color:#00364F"/>
						<stop  offset="0.2519" style="stop-color:#0F4565"/>
						<stop  offset="1" style="stop-color:#FF7F8C"/>
					</linearGradient>
					<path id="XMLID_246_" fill="url(#XMLID_68_)" d="M221.2-59.7C221.2-59.7,221.2-59.7,221.2-59.7
						C221.2-59.7,221.2-59.7,221.2-59.7z"/>
					<linearGradient id="XMLID_69_" gradientUnits="userSpaceOnUse" x1="118.5148" y1="-92.124" x2="706.5148" y2="93.876">
						<stop  offset="0" style="stop-color:#00364F"/>
						<stop  offset="0.2519" style="stop-color:#0F4565"/>
						<stop  offset="1" style="stop-color:#FF7F8C"/>
					</linearGradient>
					<path id="XMLID_245_" fill="url(#XMLID_69_)" d="M221.2-59.6l-0.1-0.1L221.2-59.6z"/>
					<linearGradient id="XMLID_70_" gradientUnits="userSpaceOnUse" x1="125.1226" y1="-113.0134" x2="713.1226" y2="72.9866">
						<stop  offset="0" style="stop-color:#00364F"/>
						<stop  offset="0.2519" style="stop-color:#0F4565"/>
						<stop  offset="1" style="stop-color:#FF7F8C"/>
					</linearGradient>
					<path id="XMLID_244_" fill="url(#XMLID_70_)" d="M116.9-115.6c0,0,0.1,0.1,0.1,0.1C117-115.6,116.9-115.6,116.9-115.6z"/>
					<linearGradient id="XMLID_71_" gradientUnits="userSpaceOnUse" x1="125.1329" y1="-113.046" x2="147.88" y2="-105.8505">
						<stop  offset="0" style="stop-color:#00364F"/>
						<stop  offset="0.2519" style="stop-color:#0F4565"/>
						<stop  offset="1" style="stop-color:#FF7F8C"/>
					</linearGradient>
					<path id="XMLID_243_" fill="url(#XMLID_71_)" d="M116.9-115.6C116.9-115.6,116.9-115.6,116.9-115.6
						C116.9-115.6,116.9-115.6,116.9-115.6z"/>
					<linearGradient id="XMLID_72_" gradientUnits="userSpaceOnUse" x1="117.0245" y1="-115.5396" x2="117.0263" y2="-115.539">
						<stop  offset="0" style="stop-color:#00364F"/>
						<stop  offset="0.2519" style="stop-color:#0F4565"/>
						<stop  offset="1" style="stop-color:#FF7F8C"/>
					</linearGradient>
					<path id="XMLID_242_" fill="url(#XMLID_72_)" d="M117-115.5C117-115.5,117-115.5,117-115.5C117-115.5,117-115.5,117-115.5z"/>
					<linearGradient id="XMLID_73_" gradientUnits="userSpaceOnUse" x1="125.1627" y1="-113.14" x2="713.1627" y2="72.86">
						<stop  offset="0" style="stop-color:#00364F"/>
						<stop  offset="0.2519" style="stop-color:#0F4565"/>
						<stop  offset="1" style="stop-color:#FF7F8C"/>
					</linearGradient>
					<path id="XMLID_241_" fill="url(#XMLID_73_)" d="M117-115.6C117-115.6,117-115.6,117-115.6C117-115.7,117-115.7,117-115.6
						c0.2-0.1,0.3-0.1,0.3-0.1S117.2-115.7,117-115.6C117-115.7,117-115.7,117-115.6C117-115.7,116.9-115.7,117-115.6
						C116.9-115.7,116.9-115.7,117-115.6C116.9-115.7,116.9-115.6,117-115.6C116.9-115.6,116.9-115.6,117-115.6
						C116.9-115.6,117-115.6,117-115.6z"/>
					<g id="XMLID_386_">
						<linearGradient id="XMLID_74_" gradientUnits="userSpaceOnUse" x1="-4.6328" y1="-50.2591" x2="-4.604" y2="-50.25">
							<stop  offset="0" style="stop-color:#00364F"/>
							<stop  offset="0.2519" style="stop-color:#0F4565"/>
							<stop  offset="1" style="stop-color:#FF7F8C"/>
						</linearGradient>
						<path id="XMLID_387_" fill="url(#XMLID_74_)" d="M-4.6-50.3C-4.6-50.3-4.6-50.2-4.6-50.3C-4.6-50.2-4.6-50.3-4.6-50.3
							C-4.6-50.3-4.6-50.3-4.6-50.3C-4.6-50.3-4.6-50.3-4.6-50.3z"/>
						<linearGradient id="XMLID_76_" gradientUnits="userSpaceOnUse" x1="59.5328" y1="94.335" x2="647.5328" y2="280.335">
							<stop  offset="0" style="stop-color:#00364F"/>
							<stop  offset="0.2519" style="stop-color:#0F4565"/>
							<stop  offset="1" style="stop-color:#FF7F8C"/>
						</linearGradient>
						<path id="XMLID_388_" fill="url(#XMLID_76_)" d="M558.8,348.7c-0.1,0-0.1-0.1-0.2-0.1c-0.2-0.1-0.4-0.2-0.6-0.3
							c-0.9-0.4-2.2-1-3.9-1.8c-3.4-1.6-8.3-4-14.6-7c-1.6-0.8-3.2-1.6-4.9-2.4c-1.6-1-3.3-2.1-5.1-3.2c-3.5-2.2-7.3-4.7-11.4-7.2
							c-9.1-5.8-18.3-11.5-27.4-17.2c-5-3.1-10.4-6.4-15.8-9.8c-5.4-3.4-11-7-16.7-10.7c-12.1-7.6-24.3-15.2-36.5-22.5
							c-26.7-16-53.8-31.4-81.1-46.2c-5.8-3.1-11.6-6.2-17.4-9.2c38.6,15.1,76.8,31.2,114.4,48.5c2.4,1.1,4.8,2.2,7.1,3.3
							c1.1,0.5,2.3,1.1,3.4,1.6c1.1,0.5,2.3,1,3.4,1.4c4.4,1.9,8.7,3.7,12.6,5.4c7.9,3.4,14.8,6.4,20.4,9c5.7,2.5,10.1,4.5,13.1,5.9
							c1.5,0.7,2.7,1.2,3.4,1.6c0.4,0.2,0.7,0.3,0.9,0.4c0.2,0.1,0.3,0.1,0.3,0.1s-0.1-0.1-0.3-0.2c-0.2-0.1-0.5-0.2-0.9-0.4
							c-0.8-0.4-1.9-1-3.4-1.8c-3-1.5-7.3-3.8-12.8-6.7c-5.5-2.9-12.3-6.3-20-10.3c-3.9-2-8-4.1-12.3-6.3c-1.1-0.6-2.2-1.1-3.3-1.7
							c-1.1-0.6-2.2-1.2-3.3-1.8c-2.3-1.2-4.6-2.5-6.9-3.7c-46.1-24.9-93.2-48-141-69.3c-13-5.8-26.1-11.4-39.2-16.9
							c-12.7-5.3-25.5-10.4-38.3-15.4c-15.3-5.9-30.8-11.6-46.3-17.2c10.7,2.3,21.4,4.7,32.1,7.1c15.2,3.5,30.5,6.9,45.6,10.6
							c15.7,3.8,31.4,7.8,47,12c57.9,15.6,115.4,33.8,171.8,54.5c5.8,2.1,11.4,4.2,16.7,6.2c2.6,1,5.2,2,7.7,2.9
							c2.5,0.9,5,1.7,7.4,2.5c9.5,3.2,17.8,6.1,24.6,8.5c3.4,1.2,6.4,2.3,9.1,3.2c0.3,0.1,0.6,0.3,1,0.3c0.2,0.1,0.3,0.1,0.5,0.2
							c0.2,0,0.3,0.1,0.5,0.1c0.6,0.1,1.2,0.2,1.8,0.4c1.2,0.2,2.2,0.4,3.2,0.6c1.9,0.4,3.3,0.7,4.3,0.9c0.2,0,0.5,0.1,0.6,0.1
							c0.1,0,0.2,0,0.3,0.1c0,0,0,0,0,0c0,0,0,0,0,0c0,0,0,0,0,0c0,0,0,0,0,0c-0.1,0-0.2,0-0.3-0.1c-0.2,0-0.4-0.1-0.6-0.2
							c-1-0.2-2.4-0.6-4.3-1.1c-0.9-0.2-2-0.5-3.1-0.8c-0.6-0.1-1.2-0.3-1.8-0.5c-0.2,0-0.3-0.1-0.5-0.1c-0.2-0.1-0.3-0.1-0.5-0.2
							c-0.3-0.1-0.6-0.3-1-0.4c-2.6-1.1-5.6-2.3-9-3.7c-6.8-2.8-15-6.2-24.4-10c-2.4-1-4.8-1.9-7.3-3c-2.5-1-5.1-2.2-7.7-3.4
							c-5.3-2.3-10.8-4.7-16.6-7.2C415,192,357.5,170.3,299.4,151.4c-15.7-5.1-31.5-10-47.3-14.7c-15.3-4.5-30.7-8.9-46.1-13.1
							c-9.9-2.7-20-5.3-30-7.7c2.7,0.4,5.4,0.9,8.1,1.3c3.7,0.6,7.5,1.2,11.3,1.8c31.8,5.2,63.7,11.2,95.1,17.9
							c59.7,12.7,119.1,28.2,177.5,46.2c6,1.9,11.8,3.7,17.3,5.4c2.7,0.9,5.4,1.7,8,2.6c1.3,0.4,2.6,0.8,3.8,1.2
							c1.3,0.4,2.5,0.7,3.7,1.1c9.7,2.7,18.4,5.1,25.4,7.1c3.5,1,6.7,1.9,9.4,2.7c0.3,0.1,0.7,0.2,1,0.3c0.2,0.1,0.3,0.1,0.5,0.2
							c0.2,0,0.3,0,0.5,0.1c0.6,0.1,1.3,0.2,1.8,0.3c1.2,0.2,2.2,0.4,3.2,0.5c1.9,0.3,3.4,0.6,4.4,0.7c0.2,0,0.5,0.1,0.7,0.1
							c0.1,0,0.2,0,0.3,0c0,0,0,0,0,0c0,0,0,0,0,0c0,0,0,0,0,0c0,0,0,0,0,0c-0.1,0-0.2,0-0.3-0.1c-0.2,0-0.4-0.1-0.7-0.1
							c-1-0.2-2.5-0.5-4.4-0.9c-1-0.2-2-0.4-3.2-0.7c-0.6-0.1-1.2-0.3-1.8-0.4c-0.3,0-0.6-0.2-1-0.3c-0.3-0.1-0.7-0.2-1-0.3
							c-2.7-0.9-5.9-2-9.4-3.2c-7-2.4-15.7-5.4-25.4-8.6c-2.4-0.8-5-1.8-7.6-2.8c-2.6-1-5.3-2-8-3c-5.5-2-11.3-4.2-17.3-6.4
							c-58.7-21.3-118.5-39.8-178.7-55.4c-31.8-8.2-64.1-15.8-96.3-22.4c-14.7-3-29.6-5.9-44.4-8.4C135.3,90.2,122,88,108.7,86
							c-3.6-0.6-7.2-1.1-10.6-1.6c5,0.1,10,0.2,15.2,0.3c3.3,0.1,6.6,0.2,10,0.3c3.4,0.1,6.8,0.3,10.2,0.4c6.9,0.3,14,0.6,21.2,1.1
							c7.2,0.4,14.5,1,22,1.6c3.7,0.3,7.5,0.6,11.2,0.9c3.8,0.3,7.6,0.7,11.4,1.1c7.6,0.7,15.3,1.5,23,2.4
							c7.7,0.9,15.5,1.9,23.2,2.9c3.9,0.5,7.8,1,11.6,1.6c3.9,0.6,7.8,1.2,11.6,1.7c7.7,1.2,15.5,2.4,23.1,3.7
							c7.6,1.3,15.3,2.7,22.8,4.1c3.8,0.7,7.5,1.4,11.2,2.1c3.7,0.7,7.4,1.5,11,2.3c7.3,1.5,14.5,3,21.5,4.6
							c7,1.6,13.9,3.2,20.6,4.8c6.7,1.6,13.2,3.3,19.5,4.8c6.3,1.5,12.4,3,18.2,4.5c10.6,2.7,21.3,5.5,31.8,8.5
							c4.7,1.3,9.2,2.6,13.3,3.8c4.1,1.2,7.9,2.3,11.3,3.4c1.7,0.5,3.3,1,4.8,1.5c1.5,0.3,3,0.5,4.3,0.7c2.7,0.4,5,0.8,6.8,1.1
							c1.9,0.3,3.3,0.5,4.2,0.7c0.2,0,0.4,0.1,0.6,0.1c0.1,0,0.2,0,0.2,0c0,0,0,0,0,0c0,0,0,0,0,0c0,0,0,0,0,0c0,0,0,0,0,0
							c-0.1,0-0.2,0-0.2,0c-0.2,0-0.4-0.1-0.6-0.1c-1-0.2-2.4-0.5-4.2-0.8c-1.8-0.4-4.1-0.8-6.8-1.4c-0.7-0.1-1.4-0.3-2.1-0.4
							c-0.4-0.1-0.7-0.1-1.1-0.2c-0.4-0.1-0.8-0.1-1.1-0.3c-1.5-0.5-3.1-1.1-4.8-1.7c-3.4-1.2-7.2-2.5-11.3-3.9
							c-4.1-1.4-8.6-2.9-13.3-4.4c-10.6-3.5-21.3-6.9-32-10.3c-5.9-1.8-12-3.6-18.3-5.6c-6.3-1.9-12.9-3.9-19.7-5.8
							c-6.8-2-13.7-4-20.8-5.9c-7.1-1.9-14.4-3.8-21.8-5.7c-3.7-0.9-7.5-1.9-11.2-2.8c-3.7-0.9-7.6-1.8-11.4-2.7
							c-7.6-1.8-15.4-3.6-23.2-5.3c-7.8-1.7-15.7-3.3-23.6-4.8c-4-0.8-7.9-1.6-11.9-2.3c-3.9-0.7-7.9-1.4-11.9-2.1
							c-7.9-1.4-15.9-2.8-23.8-4c-7.9-1.2-15.8-2.4-23.6-3.5c-7.8-1.1-15.6-2.1-23.2-3c-5-0.6-10-1.2-14.9-1.7
							c15.2,0.8,30.3,1.7,45.4,2.7c3.9,0.3,7.8,0.6,11.7,0.9c3.9,0.3,7.8,0.7,11.7,1c7.8,0.7,15.6,1.4,23.3,2.2
							c15.1,1.6,30.4,3.4,45.5,5.5c7.4,1,14.7,2,21.8,3.1c7.1,1.1,14.1,2.2,20.9,3.3c12.8,2.1,25.6,4.5,38.4,6.9
							c10.8,2,21.6,3.9,32.4,6c4.8,0.9,9.4,1.8,13.5,2.7c2.1,0.4,4.1,0.9,6,1.2c1.9,0.3,3.7,0.5,5.5,0.7c6.9,0.9,12.4,1.7,16.1,2.2
							c1.9,0.3,3.3,0.5,4.2,0.6c0.5,0.1,0.8,0.2,1.1,0.1c0.2,0.1,0.4,0.1,0.4,0.1s-0.1,0-0.4-0.1c-0.2,0-0.6-0.1-1.1-0.2
							c-1-0.2-2.4-0.4-4.3-0.8c-3.7-0.7-9.2-1.7-16.2-3c-1.7-0.3-3.6-0.7-5.5-1c-1.9-0.5-4-1-6.1-1.5c-4.2-1.1-8.8-2.2-13.7-3.4
							c-10.9-2.7-21.9-5.2-32.8-7.7c-12.9-3-25.9-6-38.9-8.8c-6.9-1.5-14-2.9-21.2-4.4c-7.2-1.4-14.7-2.8-22.2-4.2
							c-3.8-0.7-7.6-1.4-11.4-2c-3.8-0.7-53-11-62.3-12.5c-9.7-1.6-19.4-3.2-29.1-4.7c-21-3.2-42.1-6.1-63.2-8.7
							c-7.7-0.9-15.4-1.8-23.1-2.7c6.2-0.1,12.5-0.2,18.8-0.4c3.6-0.1,7.3-0.2,11-0.3c3.7-0.1,7.5-0.1,11.2-0.1
							c7.5,0,15.1-0.1,22.7,0.1c7.6,0.1,15.3,0.3,23,0.6c3.8,0.1,7.7,0.2,11.6,0.4c3.8,0.2,7.7,0.4,11.6,0.6
							c7.7,0.4,15.5,0.8,23,1.4c7.6,0.5,15.3,1.2,22.8,1.9c3.8,0.3,7.5,0.7,11.2,1c3.7,0.4,7.4,0.8,11.1,1.2
							c7.3,0.8,14.6,1.6,21.6,2.5c7.1,0.9,14,1.9,20.8,2.9c12.7,1.8,25.5,3.9,38.2,6.1c10.8,1.9,21.6,4,32.3,6.1
							c4.8,1,9.3,1.9,13.5,2.8c4.2,0.7,8,1.4,11.4,2c6.9,1.2,12.3,2.3,16,3c1.9,0.3,3.3,0.6,4.2,0.8c0.5,0.1,0.8,0.2,1.1,0.2
							c0.2,0.1,0.4,0.1,0.4,0.1s-0.1,0-0.4-0.1c-0.2,0-0.6-0.1-1.1-0.2c-1-0.2-2.4-0.5-4.3-1c-3.7-0.9-9.2-2.1-16.2-3.7
							c-3.5-0.8-7.4-1.6-11.5-2.6c-4.2-1-8.8-2.2-13.6-3.4c-10.9-2.7-21.8-5.2-32.7-7.6c-12.8-2.8-25.8-5.4-38.7-7.8
							c-6.9-1.3-14-2.6-21.2-3.8c-7.2-1.2-14.6-2.4-22.1-3.5c-3.7-0.6-7.5-1.2-11.3-1.7c-3.8-0.5-7.6-1-11.5-1.5
							c-7.7-1-15.5-2-23.3-2.9c-7.8-0.9-15.7-1.7-23.7-2.4c-4-0.4-8-0.8-11.9-1.1c-3.9-0.3-7.9-0.6-11.9-0.9
							c-7.9-0.6-15.9-1.2-23.7-1.6c-7.9-0.4-15.7-0.7-23.5-1.1c-7.8-0.3-15.4-0.5-23-0.6c-5.4-0.1-10.7-0.1-15.9-0.1
							c1.1-0.1,2.1-0.1,3.2-0.2c3.9-0.2,7.8-0.4,11.7-0.6c3.9-0.2,7.9-0.3,11.9-0.4c8-0.2,16.1-0.5,24.1-0.5
							c8.1-0.1,16.3,0,24.5,0.1c4.1,0,8.2,0.1,12.3,0.1c4.1,0.1,8.2,0.2,12.3,0.4c8.2,0.3,16.5,0.6,24.5,1c8.1,0.4,16.3,1,24.3,1.6
							c4,0.3,8,0.6,12,0.9c4,0.3,7.9,0.7,11.8,1.1c7.8,0.8,15.6,1.5,23.1,2.3c7.5,0.9,15,1.9,22.2,2.8c13.6,1.8,27.2,3.9,40.8,6.1
							c3.2,0.5,6.3,1,9.3,1.5c3,0.5,6,1.1,8.9,1.6c5.8,1.1,11.3,2.1,16.4,3.1c5.1,1,10,1.9,14.4,2.9c2.2,0.5,4.4,1,6.4,1.4
							c2,0.3,4,0.6,5.8,0.8c7.4,1.1,13.2,2,17.1,2.6c2,0,3.5-0.2,4.5-0.3c0.3,0,0.5,0,0.7,0c0.1,0,0.2,0,0.3,0c0,0,0,0,0,0
							c0,0,0,0,0,0c0,0,0,0,0,0c-0.1,0-0.2,0-0.3,0c-0.2,0-0.4,0-0.7,0c-0.5,0-1.1,0-1.9,0.1c-0.4,0-0.8,0-1.2,0c-0.2,0-0.4,0-0.7,0
							c-0.2,0-0.5,0.1-0.7,0c-4-0.8-9.8-2-17.3-3.4c-1.9-0.4-3.8-0.8-5.9-1.2c-2.1-0.5-4.2-1.1-6.5-1.7c-4.5-1.1-9.4-2.3-14.6-3.6
							c-11.7-2.8-23.4-5.5-35.1-8.1c-13.8-3-27.7-5.7-41.5-8.2c-7.4-1.3-15-2.7-22.7-3.9c-7.7-1.2-15.6-2.4-23.7-3.5
							c-4-0.6-8.1-1.2-12.2-1.7c-4-0.5-8.2-1-12.3-1.5c-8.3-1-16.7-2-25-2.8c-8.3-0.8-16.9-1.6-25.3-2.2c-4.2-0.3-8.5-0.7-12.8-1
							c-4.2-0.3-8.5-0.5-12.7-0.8c-8.5-0.5-17-1-25.4-1.3c-8.4-0.3-16.8-0.5-25.1-0.7c-3-0.1-5.9-0.1-8.9-0.1
							c6.1-0.4,12.2-0.8,18.4-1.1c4-0.2,6-0.3,10.1-0.6c3.4-0.1,6.8-0.3,10.1-0.4c6.7-0.2,13.5-0.5,20.2-0.6
							c6.7-0.1,13.4-0.1,20-0.2c3.3,0,6.6,0,9.9,0c3.3,0,6.5,0.1,9.8,0.2c6.5,0.1,12.9,0.2,19.1,0.4c6.2,0.2,12.4,0.5,18.4,0.8
							c11.3,0.6,22.6,1.3,33.8,2.2c9.6,0.7,19.2,1.7,28.7,2.7c4.3,0.4,8.3,0.9,12,1.3c3.7,0.4,7.1,0.9,10.2,1.2
							c6.1,0.3,10.9,0.5,14.1,0.7c1.6,0.1,2.9,0.2,3.7,0.2c0.4,0,0.7,0.1,1,0c0.2,0,0.3,0,0.3,0s-0.1,0-0.3-0.1c-0.2,0-0.5,0-1-0.1
							c-0.9-0.1-2.1-0.2-3.8-0.4c-3.3-0.3-8.2-0.8-14.3-1.4c-3.1-0.5-6.6-1.1-10.4-1.7c-3.8-0.6-7.9-1.2-12.2-1.8
							c-9.7-1.4-19.5-2.8-29.3-3.9c-11.4-1.3-23-2.6-34.5-3.6c-6.1-0.6-12.4-1.1-18.8-1.6c-6.4-0.5-12.9-0.9-19.6-1.3
							c-3.3-0.2-6.7-0.4-10-0.6c-3.3-0.2-6.7-0.3-10.1-0.4c-6.8-0.3-13.7-0.5-20.6-0.7c-2,0-3.9-0.1-5.9-0.1
							c1.3-0.1,2.6-0.3,3.9-0.4c1.5-0.2,3-0.3,4.6-0.4c2.5-0.2,5.1-0.3,7.6-0.5c2.9-0.1,5.8-0.2,8.7-0.3c5.7-0.2,11.4-0.4,16.9-0.6
							C206.5-1,212-0.9,217.3-1c10-0.1,20.2,0.2,30.2,0.5c2.3,0.1,4.6,0.1,6.9,0.2c2.2,0.1,4.5,0.2,6.6,0.3c1.1,0.1,2.1,0.1,3.2,0.1
							c1,0,2.1,0,3.1,0c2,0,4,0,5.9,0c3.8,0,7.4,0,10.6,0.1c3.3,0.1,6.4,0.2,9.1,0.3c1.4,0,2.7,0.1,3.9,0.1c1.2,0,2.3-0.2,3.4-0.2
							c2.1-0.2,3.8-0.3,5.3-0.4c1.4-0.1,2.5-0.2,3.3-0.3c0.4-0.1,0.7,0,0.8-0.1c0.2,0,0.3,0,0.3,0s-0.1,0-0.3,0
							c-0.2,0.1-0.5,0-0.8,0.1c-0.8,0-1.9,0-3.3,0.1c-1.5,0-3.3,0-5.4,0.1c-1.1,0-2.2,0.1-3.4,0c-1.2-0.1-2.6-0.2-4-0.4
							c-2.8-0.3-6-0.6-9.3-1c-3.4-0.3-7.1-0.6-11-1c-2.9-0.3-6-0.5-9.3-0.8c9.2,0,17.9,0.5,25.3,0.5c3.8,0,7.5,0.1,10.8,0.2
							c3.3,0.1,6.4,0.2,9.2,0.4c5.6,0.2,10,0.4,13,0.6c1.4-0.3,2.4-0.7,3.1-0.9c0.2-0.1,0.3-0.1,0.5-0.1c0.1,0,0.1,0,0.2-0.1
							c0,0,0,0,0,0c0,0,0,0,0,0c0,0,0,0,0,0c0,0,0,0,0,0c-0.1,0-0.1,0-0.2,0c-0.1,0-0.3,0.1-0.5,0.1c-0.7,0.1-1.8,0.5-3.2,0.6
							c-3.1-0.4-7.6-0.9-13.3-1.5c-2.9-0.3-6.1-0.7-9.5-1.1c-3.4-0.4-7.2-0.7-11.2-1c-7.9-0.7-17.2-1.8-26.9-2.5
							c-10.5-0.8-21.2-1.7-31.8-2.1c-5.6-0.2-11.4-0.6-17.3-0.8c-5.8-0.2-11.9-0.2-17.9-0.3c-3,0-6.1-0.1-9.2-0.1
							c-3,0-6.2,0.1-9.3,0.1c-6.2,0.1-12.6,0.1-18.9,0.3c-3.7,0.1-7.4,0.3-11.1,0.5c-0.9,0-1.8,0-2.7,0c-6.2,0-12.6,0.2-19,0.3
							c-3.2,0.1-6.4,0.1-9.5,0.2c-3.8,0.2-5.7,0.3-9.5,0.4C97.6-9.4,91.3-9.2,85-8.7C80.6-8.4,76.2-8,71.8-7.6
							c1.6-0.5,3.2-1,4.7-1.4c4.9-1.4,9.9-2.7,14.8-4c2.4-0.7,4.9-1.3,7.3-1.9c2.4-0.6,4.9-1.2,7.3-1.8c4.8-1.2,9.6-2.3,14.2-3.4
							c4.7-1.1,9.3-2,13.8-3c8.9-1.9,17.6-3.5,25.6-5c4-0.7,7.8-1.4,11.5-2c3.6-0.7,7-1.4,10.2-2c3.2-0.6,6.2-1.3,9-1.8
							c2.8-0.5,5.4-1,7.7-1.4c2.3-0.4,4.4-0.8,6.3-1.1c0.2,0,0.5-0.1,0.7-0.1c0.1,0,0.2,0,0.3,0c0.1-0.1,0.2-0.1,0.3-0.1
							c0.4-0.2,0.7-0.4,1-0.5c0.7-0.3,1.2-0.6,1.8-0.9c1.1-0.5,1.9-1,2.4-1.2c0.1-0.1,0.3-0.1,0.4-0.2c0.1,0,0.1-0.1,0.1-0.1
							c0,0,0,0,0,0c0,0,0,0,0,0c0,0,0,0,0,0c0,0,0,0,0,0c0,0-0.1,0-0.2,0.1c-0.1,0-0.2,0.1-0.4,0.2c-0.6,0.2-1.4,0.6-2.6,1
							c-0.6,0.2-1.2,0.5-1.9,0.7c-0.3,0.1-0.7,0.3-1.1,0.4c-0.1,0-0.2,0.1-0.3,0.1c-0.1,0-0.2,0-0.4,0c-0.2,0.1-0.5,0.1-0.7,0.1
							c-1.9,0.2-4.1,0.4-6.6,0.6c-2.5,0.2-5.2,0.4-8.2,0.7c-3,0.3-6.2,0.6-9.6,1c-3.4,0.3-7.1,0.8-11,1.1c-3.9,0.3-8,0.6-12.3,1
							c-8.5,0.8-17.9,1.7-27.5,2.9c-4.8,0.6-9.9,1.2-14.9,1.9c-5,0.7-10.2,1.5-15.4,2.2c-2.6,0.4-5.3,0.8-7.9,1.2
							c-2.6,0.4-5.3,0.9-7.9,1.3c-4.9,0.8-9.8,1.7-14.7,2.6c0,0,0,0,0,0c5.6-1.8,11.2-3.7,16.8-5.4c5-1.5,10-2.9,15-4.3
							c2.5-0.7,5-1.4,7.4-2.1c2.5-0.7,4.9-1.3,7.4-1.9c4.9-1.3,9.7-2.5,14.4-3.7c4.7-1.1,9.5-2.2,14.1-3.2c4.6-1,9.1-2,13.4-2.9
							c4.3-1,8.5-1.9,12.4-2.9c7.9-1.8,15.5-3.3,22-4.6c3.3-0.7,6.4-1.3,9.3-1.8c1.4-0.3,2.8-0.5,4.2-0.7c1.3-0.3,2.5-0.5,3.7-0.8
							c2.4-0.5,4.5-0.9,6.3-1.3c0.2-0.1,0.5-0.1,0.7-0.2c0.1,0,0.2,0,0.3,0c0.1-0.1,0.2-0.1,0.3-0.1c0.4-0.2,0.7-0.4,1-0.6
							c0.6-0.4,1.2-0.7,1.8-1c1.1-0.6,1.9-1.1,2.4-1.4c0.1-0.1,0.3-0.1,0.4-0.2c0.1,0,0.1-0.1,0.1-0.1c0,0,0,0,0,0c0,0,0,0,0,0
							c0,0,0,0,0,0c0,0,0,0,0,0c0,0-0.1,0-0.2,0.1c-0.1,0.1-0.2,0.1-0.4,0.2c-0.6,0.3-1.4,0.7-2.6,1.2c-0.6,0.2-1.2,0.5-1.9,0.8
							c-0.3,0.2-0.7,0.3-1.1,0.5c-0.1,0-0.2,0.1-0.3,0.1c-0.1,0-0.2,0-0.4,0c-0.2,0.1-0.5,0.1-0.7,0.1c-1.9,0.2-4.2,0.5-6.7,0.8
							c-1.3,0.1-2.6,0.3-4,0.5c-1.4,0.1-2.9,0.2-4.4,0.4c-3.1,0.3-6.4,0.6-9.9,1c-7,0.7-15.2,1.5-23.7,2.6
							c-4.3,0.5-8.9,1.1-13.5,1.7c-4.7,0.5-9.5,1.1-14.5,1.8c-5,0.6-10.1,1.3-15.3,2c-5.1,0.7-10.4,1.6-15.8,2.5
							c-2.7,0.4-5.4,0.9-8.1,1.3c-2.7,0.5-5.4,1-8.1,1.5c-5.4,1-11,2-16.5,3.1c-5.3,1.1-10.7,2.3-16.1,3.5c2.8-0.8,5.6-1.7,8.3-2.5
							c4.9-1.4,9.8-2.7,14.7-4c2.4-0.6,4.9-1.3,7.2-1.9c2.4-0.6,4.8-1.2,7.2-1.7c4.8-1.1,9.6-2.3,14.2-3.3c4.6-1,9.3-2,13.8-2.8
							c4.5-0.9,8.8-1.9,13-2.8c4.2-0.9,8.3-1.7,12.2-2.5c7.7-1.6,15.2-2.8,21.6-4c1.7-0.2,3.1-0.7,4.6-1c1.4-0.4,2.8-0.7,4.2-1
							c2.7-0.6,5.2-1.2,7.5-1.7c4.5-1,8.1-1.8,10.6-2.4c1.2-0.3,2.2-0.5,2.8-0.6c0.3-0.1,0.6-0.1,0.7-0.2c0.2,0,0.3,0,0.3,0
							s-0.1,0-0.3,0c-0.1,0.1-0.4,0.1-0.7,0.1c-0.7,0.1-1.7,0.2-2.9,0.4c-2.6,0.3-6.4,0.9-11.2,1.5c-2.4,0.3-5.1,0.6-8,1
							c-1.5,0.2-3,0.4-4.5,0.6c-1.6,0.2-3.2,0.5-4.9,0.5c-6.9,0.5-14.9,1.1-23.3,1.9c-8.5,0.9-17.7,1.8-27.4,2.8
							c-4.9,0.5-10,1-15,1.6c-5,0.6-10.2,1.4-15.5,2.1c-2.6,0.4-5.3,0.7-7.9,1.1c-2.6,0.4-5.3,0.9-7.9,1.3c-1.4,0.2-2.9,0.5-4.3,0.7
							c1-0.3,1.9-0.5,2.9-0.8c2.5-0.7,5.1-1.3,7.6-1.9c2.5-0.6,5-1.3,7.5-1.9c2.4-0.7,4.8-1.4,7.2-2c4.8-1.3,9.6-2.4,14.1-3.6
							c9.1-2.3,18.1-4.2,26.3-6c4.1-0.9,8.1-1.7,11.9-2.4c3.8-0.7,7.4-1.4,10.9-2c3.4-0.6,6.6-1.3,9.5-1.8c3-0.5,5.7-1,8.2-1.4
							c4.9-0.8,8.8-1.5,11.5-1.9c1.3-0.2,2.4-0.4,3-0.5c0.3-0.1,0.6-0.1,0.8-0.1c0.2,0,0.3,0,0.3,0s-0.1,0-0.3,0
							c-0.2,0-0.5,0-0.8,0.1c-0.7,0.1-1.8,0.1-3.2,0.2c-2.8,0.2-7,0.5-12.2,0.9c-2.6,0.2-5.6,0.4-8.7,0.7c-3.2,0.2-6.5,0.6-10.2,0.9
							c-7.3,0.6-15.7,1.3-24.5,2.3c-9.5,1.1-19.2,2.1-28.8,3.4c-5.1,0.7-10.3,1.3-15.6,2.1c-2.6,0.4-5.3,0.8-8,1.2
							c-2.7,0.4-5.5,0.8-8.2,1.2c-2.8,0.4-5.6,0.8-8.4,1.3c-2.8,0.5-5.6,1-8.4,1.5c-5.6,1-11.4,2-17,3.1c-5.6,1.1-11.3,2.4-17,3.6
							c-2.8,0.6-5.7,1.3-8.5,1.9c-3.4,0.8-5.1,1.2-8.4,2.1c-1.2,0.3-2.5,0.6-3.7,0.9c-0.1-0.2-0.1-0.3-0.2-0.4c0,0,0,0,0,0
							c0,0,0,0,0-0.1c0,0,0,0,0,0c0,0,0,0,0,0c0,0,0,0,0,0c-0.1-0.2-0.1-0.2,0-0.1c0-0.1-0.1-0.2-0.1-0.4c4.2-2.4,8.3-4.9,12.5-7.2
							c8-4.5,16.4-8.8,24-13c3.8-2.1,7.6-4.4,11.3-6.4c3.7-2,7.5-4,11.1-5.9c7.1-3.8,14.2-7.3,20.7-10.5c6.4-3.2,12.6-6,18-8.5
							c1.3-0.6,2.7-1.2,3.9-1.8c1.3-0.6,2.3-1.3,3.5-1.8c2.2-1.1,4.3-2.2,6.1-3.2c3.7-1.9,6.6-3.5,8.6-4.5c0.8-0.7,1.4-1.3,1.8-1.6
							c0.1-0.1,0.2-0.2,0.3-0.2c0,0,0.1-0.1,0.1-0.1c0,0,0,0,0,0c0,0,0,0,0,0c0,0,0,0,0,0c0,0,0,0,0,0c0,0-0.1,0.1-0.1,0.1
							c-0.1,0.1-0.2,0.1-0.3,0.2c-0.5,0.3-1.1,0.9-2,1.4c-2.2,0.9-5.4,2.2-9.5,3.8c-2.1,0.8-4.4,1.7-6.8,2.6c-1.2,0.5-2.5,1-3.9,1.5
							c-1.4,0.5-2.9,0.9-4.4,1.4c-6,2-12.9,4.2-20.2,6.8c-7.3,2.6-15.4,5.3-23.6,8.4c-4.1,1.5-8.5,3.1-12.8,4.7
							c-1.1,0.4-2.2,0.9-3.3,1.3C25-82,19.2-80.6,13.3-78.8c-6.7,2-14.1,4-21.6,6.5c-3.8,1.2-7.7,2.4-11.7,3.8
							c-3.9,1.3-7.9,2.8-12,4.2c-2,0.7-4.1,1.4-6.2,2.2c-2,0.7-4.1,1.5-6.1,2.3c-4.1,1.6-8.3,3.1-12.5,4.8
							c-4.1,1.7-8.3,3.4-12.4,5.2c-2.1,0.9-4.2,1.8-6.2,2.7c-2.4,1.1-3.6,1.7-6.1,2.8c-4,1.9-8.1,3.8-12,5.8c-3.9,2-7.8,4.1-11.6,6
							c-3.9,2-7.5,4.1-11.2,6.2c-3.6,2.1-7.3,4.1-10.7,6.3c-3.4,2.1-6.7,4.2-10,6.3c-1.6,1-3.3,2.1-4.8,3.1c-1.5,1-3.1,2.1-4.5,3.1
							c-2.9,2.1-5.7,4.2-8.4,6.2c-2.7,2-5.1,4.1-7.5,6c-2.4,1.9-4.7,3.8-6.8,5.6c-2.1,1.8-4,3.6-5.8,5.2c-3.6,3.3-6.8,6.2-9.2,8.7
							c-4.8,5-7.6,7.8-7.6,7.8s0.3,4.5,0.8,9.5c0.5,5,0.8,10.4,1,12.7c0,0,5.2-1.7,11.5-3.6c-0.8,1.7-1.4,2.9-1.4,2.9
							c4.2,10.9,8.4,21.8,12.5,32.8c4.2,11.2,8.2,22.4,12.2,33.7c2.2,6.2,4.4,12.5,6.6,19c1.1,3.2,2.2,6.5,3.3,9.8
							c0.3,1,0.5,1.5,0.8,2.5c0.3,0.8,0.6,1.6,0.9,2.5c0.8,2,1.2,2.9,1.9,4.9c9.2,23.9,18.1,48.1,26.6,72.2c0.4,1.2,0.8,2.4,1.3,3.6
							c0.5,1.2,0.9,2.3,1.3,3.4c0.9,2.2,1.7,4.4,2.5,6.4c1.5,4,2.9,7.5,4,10.3c0.5,1.4,1,2.7,1.5,3.8c0.1,0.1,0.1,0.3,0.2,0.4
							c0,0.1,0.1,0.3,0.2,0.4c0.2,0.3,0.3,0.5,0.5,0.7c0.3,0.5,0.6,0.9,0.8,1.3c0.5,0.7,0.9,1.3,1.1,1.7c0.2,0.2,0.2,0.3,0.3,0.4
							c0,0.1,0,0.2,0,0.2s0-0.1,0-0.2c-0.2-0.1-0.2-0.2-0.3-0.4c-0.2-0.4-0.5-1-0.9-1.7c-0.2-0.4-0.4-0.8-0.6-1.3
							c-0.1-0.2-0.2-0.5-0.4-0.7c-0.1-0.1-0.1-0.3-0.1-0.4c-0.1-0.1-0.1-0.3-0.1-0.4c-0.3-1.1-0.6-2.4-0.9-3.9
							c-0.7-2.9-1.5-6.5-2.4-10.5c-0.4-2-0.9-4.2-1.4-6.5c-0.2-1.1-0.5-2.3-0.8-3.5c-0.3-1.2-0.4-2.4-0.7-3.7
							c-4.5-24.6-9-49.4-13.6-74c-2.9-15.6-6.2-31.1-9.8-46.6c5.2,13.8,10.3,27.6,15.2,41.5c1.2,3.3,2.4,6.7,3.5,10
							c0.5,1.6,1.3,3.3,1.9,5c0.6,1.6,1.3,3.3,2,4.9c2.6,6.5,5.2,13,7.6,19.2c4.4,11.3,8.7,22.7,12.9,34.1c0.9,2.5,1.8,4.9,2.6,7.2
							c0.4,1.1,0.8,2.3,1.2,3.3c0.1,0.3,0.2,0.6,0.3,0.8c0.2,0.5,0.5,1.3,0.7,1.7c2,4.2,4,7.9,5.5,11c0.7,1.4,1.4,2.7,1.9,3.8
							c0.1,0.1,0.1,0.3,0.2,0.4c0,0.1,0,0.1,0.1,0.2c0.1,0.1,0.1,0.1,0.2,0.2c0.2,0.2,0.5,0.5,0.7,0.7c0.4,0.5,0.8,0.9,1.2,1.2
							c0.7,0.7,1.3,1.3,1.6,1.7c0.1,0.1,0.2,0.2,0.2,0.3c0,0,0.1,0.1,0.1,0.1c0,0,0,0,0,0c0,0,0,0,0,0c0,0,0,0,0,0c0,0,0,0,0,0
							c0,0-0.1-0.1-0.1-0.1c-0.1-0.1-0.1-0.2-0.2-0.3c-0.3-0.4-0.8-1-1.4-1.7c-0.3-0.4-0.6-0.8-1-1.3c-0.2-0.2-0.4-0.5-0.6-0.7
							c0-0.1-0.1-0.1-0.1-0.2c0-0.1,0-0.1,0-0.2c-0.1-0.1-0.1-0.3-0.2-0.4c-0.4-1.1-0.8-2.5-1.3-3.9c-1-2.9-2.1-6.5-3.3-10.6
							c-0.4-1-0.5-2.1-0.7-3.2c-0.2-1.1-0.4-2.2-0.6-3.4c-0.4-2.3-0.8-4.8-1.3-7.3c-2-11.7-4.1-23.4-6-35
							c-1.1-6.4-2.2-13.1-3.3-19.8c-1.1-6.7-2.2-13.6-3.3-20.4c-2.8-16.5-6-32.9-9.3-49.4c2.4,4.8,4.7,10,7.1,15.4
							c0.7,1.5,1.4,3,2,4.6c0.6,1.5,1.3,3.1,1.9,4.7c1.3,3.2,2.7,6.4,3.9,9.7c1.3,3.2,2.5,6.7,3.7,10.1c0.6,1.7,1.3,3.4,1.9,5.1
							c0.6,1.7,1.2,3.5,1.8,5.2c1.2,3.5,2.4,7,3.5,10.5c1.1,3.4,2.3,7.1,3.4,10.6c0.7,2.1,1.1,3.2,1.8,5.3c0.5,1.8,1.1,3.5,1.6,5.3
							c1,3.5,2.1,7.1,3.1,10.5c1,3.4,1.8,7,2.7,10.4c0.4,1.7,0.9,3.4,1.3,5.1c0.4,1.7,0.8,3.4,1.1,5c0.7,3.3,1.5,6.6,2.2,9.8
							c0.7,3.2,1.2,6.4,1.8,9.4c1.2,6.1,2,11.9,2.9,17.2c0.2,1.3,0.4,2.6,0.6,3.9c0.1,0.6,0.2,1.3,0.2,1.9c0.1,0.6,0.2,1.2,0.3,1.8
							c0.4,2.4,0.8,4.7,1.2,6.9c0.4,2.2,0.7,4.2,1,6.1c0.3,1.9,0.5,3.6,0.8,5.2c1.3,3.2,2.2,5.7,3,7.4c0,0,0,0,0,0.1
							c0,0,0.1,0,0.1,0.1c0.1,0.1,0.1,0.1,0.2,0.2c0.1,0.1,0.3,0.2,0.4,0.3c0.2,0.2,0.5,0.4,0.7,0.6c0.4,0.3,0.8,0.6,1.1,0.9
							c0.1,0.1,0.3,0.2,0.4,0.3c0.1,0,0.1,0.1,0.1,0.1c0,0,0,0,0,0c0,0,0,0,0,0c0,0,0,0,0,0c0,0-0.1-0.1-0.1-0.1
							c-0.1-0.1-0.2-0.2-0.3-0.3c-0.3-0.2-0.6-0.5-0.9-0.9c-0.2-0.2-0.4-0.4-0.6-0.6c-0.1-0.1-0.2-0.2-0.3-0.3
							c-0.1-0.1-0.3-0.2-0.2-0.3c-0.5-1.7-1-4.2-1.6-7.3c0-1.6,0.2-3.3,0.2-5.1c0.1-1.9,0.1-3.9,0.2-6.1c0.1-2.2,0.1-4.5,0.2-6.9
							c0-0.6,0-1.2,0.1-1.9c0-0.6,0.1-1.3,0.1-1.9c0-1.3,0.1-2.6,0.2-3.9c0.2-5.4,0.5-11.2,0.6-17.4c0-3.1,0.1-6.3,0.1-9.6
							c0-3.2-0.1-6.6-0.2-10c0-1.7,0-3.5-0.1-5.2c-0.1-1.7-0.2-3.5-0.2-5.2c-0.2-3.5-0.3-7.2-0.5-10.7c-0.2-3.6-0.6-7.3-0.9-10.9
							c-0.1-1.8-0.3-3.7-0.5-5.5c-0.2-2.2-0.4-3.3-0.6-5.5c-0.4-3.7-0.8-7.4-1.3-11.1c-0.1-0.6-0.2-1.1-0.3-1.7
							c0.2,0.4,0.4,0.9,0.6,1.3c1.1,2.3,2.2,4.6,3.3,6.8c1,2.2,2,4.4,3,6.5c1.9,4.2,3.7,8.3,5.3,12c1.6,3.7,3,7.1,4.2,10.1
							c0.2,0.8,0.7,1.5,1.2,2.2c0.4,0.7,0.8,1.4,1.2,2c0.8,1.3,1.5,2.5,2.1,3.5c1.3,2.1,2.2,3.8,2.9,5c0.3,0.6,0.6,1,0.8,1.3
							c0.1,0.1,0.1,0.3,0.2,0.3c0,0.1,0,0.1,0,0.1s0,0,0-0.1c-0.1-0.1-0.1-0.2-0.2-0.3c-0.1-0.3-0.3-0.8-0.5-1.3
							c-0.5-1.2-1.2-2.9-2-5.1c-0.4-1.1-0.8-2.3-1.3-3.6c-0.2-0.7-0.5-1.4-0.8-2.1c-0.3-0.7-0.6-1.5-0.7-2.2
							c-0.6-3.1-1.3-6.6-2.2-10.5c-0.8-3.8-1.7-8-2.8-12.4c-0.4-1.6-0.8-3.3-1.2-5c1.2,2.6,2.4,5.2,3.6,7.8c1.5,3.3,3.1,6.7,4.6,10
							c1.5,3.3,3.3,6.6,4.9,9.9c3.2,6.5,6.5,13,9.5,19.2c5.5,11.3,10.8,22.8,16.2,34.1c0.6,1.2,1.1,2.5,1.7,3.7
							c0.7,1.2,1.3,2.3,2,3.4c1.3,2.2,2.5,4.4,3.6,6.4c2.3,4,4.2,7.5,5.9,10.4c0.8,1.4,1.5,2.7,2.1,3.8c0.6,1.1,1.3,2.1,1.7,2.8
							c0.5,0.8,0.8,1.4,1.1,1.7c0.1,0.2,0.2,0.4,0.3,0.4c0,0.1,0.1,0.2,0.1,0.2s0-0.1,0-0.2c-0.1-0.1-0.1-0.3-0.3-0.5
							c-0.2-0.4-0.5-1-0.9-1.8c-0.4-0.8-0.9-1.7-1.3-2.9c-0.5-1.1-1-2.5-1.6-3.9c-1.2-2.9-2.7-6.6-4.2-10.7
							c-0.8-2.1-1.6-4.3-2.5-6.6c-0.4-1.2-0.9-2.4-1.3-3.6c-0.4-1.2-0.7-2.5-1.1-3.8c-3.4-11.7-6.8-23.5-10.2-35.2
							C-10,206.5-12,199.8-14,193c-2-6.8-4.1-13.7-6.2-20.5c-2.7-8.7-25.1-63.3-27.9-71.8c3,5.4,25.6,56.9,28.6,62.5
							c5.2,9.8,10.4,19.6,15.4,29.4c4.9,8.4,9.7,16.9,14.5,25.5c2.1,3.7,4,7.2,5.7,10.2c0.8,1.5,1.6,2.9,2.3,4.3
							c1,1.3,1.9,2.4,2.7,3.5c1.6,2.1,2.9,3.8,3.8,4.9c0.4,0.6,0.8,1,1,1.3c0.1,0.1,0.2,0.3,0.3,0.3c0,0.1,0.1,0.1,0.1,0.1
							s0,0,0-0.1c-0.1-0.1-0.1-0.2-0.2-0.3c-0.2-0.3-0.4-0.7-0.8-1.3c-0.7-1.2-1.7-2.9-2.9-5.1c-0.6-1.1-1.3-2.3-2-3.6
							c-0.5-1.4-1-2.9-1.5-4.4c-1.1-3.1-2.3-6.7-3.6-10.6c-3-8.9-6-17.8-8.7-26.7c-3.1-10.2-6.2-20.6-9.5-30.8
							c-6.3-19.2-13-38.5-20.2-57.3c-0.3-0.7-0.5-1.4-0.8-2.1c15.5,29,30.3,58.5,44.3,88.2c1.5,3.2,3,6.5,4.5,9.7
							c0.7,1.6,1.5,3.2,2.2,4.8c0.7,1.6,1.6,3.2,2.3,4.8c3.1,6.3,6.3,12.6,9.2,18.6c5.3,11,10.5,22.1,15.7,33.1
							c1.1,2.4,2.2,4.8,3.2,7c1.1,2.2,2.4,4.3,3.5,6.2c2.2,3.9,4.1,7.3,5.7,10.1c0.8,1.4,1.5,2.6,2.1,3.7c0.6,1.1,1.2,2,1.7,2.7
							c0.5,0.7,0.8,1.3,1.1,1.7c0.1,0.2,0.2,0.3,0.3,0.4c0,0.1,0.1,0.2,0.1,0.2s0-0.1,0-0.2c-0.1-0.1-0.1-0.2-0.3-0.4
							c-0.2-0.4-0.5-1-0.9-1.7c-0.4-0.7-0.9-1.7-1.4-2.8c-0.5-1.1-1-2.4-1.6-3.8c-1.2-2.9-2.7-6.4-4.2-10.3c-0.8-2-1.7-4.1-2.5-6.4
							c-0.7-2.2-1.4-4.7-2.2-7.2c-3.4-11.4-6.9-22.7-10.4-34.1c-2-6.5-28.7-83.7-30.9-90.5c3,6.6,30.5,83.6,33.2,89.8
							c2.4,5.6,4.8,11,6.9,16.1c1.1,2.6,2.1,5.1,3.2,7.5c0.5,1.2,1,2.4,1.5,3.6c0.1,0.3,0.3,0.6,0.4,0.9c0.2,0.5,0.6,1.4,0.9,1.9
							c4.7,9.1,8.8,16.7,11.5,22c0.7,1.3,1.3,2.4,1.8,3.5c0.5,1,1.1,1.9,1.5,2.5c0.4,0.7,0.7,1.2,1,1.6c0.1,0.2,0.2,0.3,0.3,0.4
							c0,0.1,0.1,0.1,0.1,0.1s0,0,0-0.1c-0.1-0.1-0.1-0.2-0.2-0.4c-0.2-0.4-0.4-0.9-0.8-1.6c-0.3-0.7-0.8-1.6-1.1-2.6
							c-0.4-1-0.8-2.2-1.3-3.5c-1.9-5.3-4.5-13-7.4-21.9c-0.4-1.1-0.6-2.3-0.9-3.5c-0.3-1.2-0.6-2.4-0.9-3.6c-0.6-2.5-1.2-5-1.8-7.7
							c-1.3-5.3-2.6-10.8-4-16.5c-3-12-6-24-9-36c-1.6-6.1-3.1-12.3-4.7-18.3c-0.6-2.2-1.1-4.4-1.7-6.5
							c19.7,51.8,48.6,126.7,48.6,126.7L60.5,168.8c8.9,16,17.6,32.1,26,48.2c5.8,11.2,11.6,22.6,17.2,34c0.7,1.4,1.3,2.7,2,4
							c0.7,1.3,1.4,2.6,2.1,3.9c1.4,2.6,2.8,5.1,4.1,7.6c2.7,4.9,5.1,9.6,7.4,13.9c1.1,2.2,2.2,4.2,3.2,6.2c0.5,1,1,2,1.5,2.9
							c0.5,0.9,1.1,1.8,1.6,2.7c2.1,3.5,3.9,6.5,5.3,9c0.7,1.2,1.4,2.4,2,3.3c0.1,0.1,0.1,0.2,0.2,0.4c0,0.1,0.1,0.2,0.2,0.3
							c0.2,0.2,0.3,0.4,0.5,0.6c0.3,0.4,0.6,0.8,0.9,1.1c0.5,0.7,0.9,1.1,1.2,1.5c0.1,0.2,0.2,0.3,0.3,0.4c0,0.1,0.1,0.1,0.1,0.1
							s0,0,0-0.1c-0.1-0.1-0.2-0.2-0.3-0.4c-0.2-0.3-0.5-0.9-1-1.5c-0.2-0.3-0.4-0.7-0.7-1.1c-0.1-0.2-0.3-0.4-0.4-0.6
							c-0.1-0.1-0.1-0.2-0.2-0.4c-0.1-0.1-0.1-0.2-0.2-0.4c-0.4-1-0.9-2.1-1.5-3.4c-1.1-2.6-2.4-5.7-3.8-9.3
							c-0.4-0.9-0.8-1.8-1.1-2.8c-0.4-0.9-0.7-2-1-3c-0.7-2-1.4-4.2-2.2-6.4c-1.5-4.5-3.2-9.3-4.9-14.5c-1.7-5.1-3.6-10.6-5.4-16.2
							c-2.5-8.1-5.4-16.6-8.4-25.2c3.6,6.3,7.1,12.6,10.4,18.6c2.8,5.1,5.6,10.1,8,14.8c2.5,4.7,5.1,9.1,7.4,13.2
							c2.3,4.1,4.5,7.8,6.3,11.1c0.9,1.7,1.8,3.2,2.6,4.6c0.4,0.7,0.8,1.4,1.2,2.1c0.5,0.6,1,1.2,1.5,1.8c1.9,2.3,3.4,4.1,4.4,5.3
							c0.5,0.6,0.9,1.1,1.2,1.4c0.1,0.2,0.2,0.3,0.3,0.4c0,0.1,0.1,0.1,0.1,0.1s0,0,0-0.1c-0.1-0.1-0.2-0.2-0.3-0.4
							c-0.2-0.3-0.5-0.8-0.9-1.4c-0.8-1.3-2-3.1-3.5-5.5c-0.4-0.6-0.7-1.2-1.2-1.9c-0.3-0.7-0.5-1.4-0.8-2.1
							c-0.6-1.5-1.2-3.1-1.8-4.8c-1.3-3.4-2.8-7.3-4.4-11.6c-1.6-4.2-3.4-8.9-5-13.7c-1.7-4.9-3.6-10.1-5.5-15.3
							c-4.1-11.1-8.4-22.3-12.7-33.3c-6.4-16.2-13.2-32.4-20.2-48.3c0.4-0.2,0.3-0.2,0.7-0.4c1,1.3,2.1,2.7,3.1,4.1
							c3,4,6.2,8.4,9.5,13c1.7,2.3,3.3,4.7,5,7.1c1.7,2.4,3.4,5,5.1,7.5c1.7,2.5,3.4,5.2,5.1,7.8c1.7,2.6,3.4,5.3,5.1,8
							c1.6,2.7,3.4,5.4,5,8.2c1.6,2.7,3.2,5.5,4.8,8.3c1,1.7,1.4,2.5,2.4,4.2c0.8,1.4,1.5,2.8,2.3,4.2c1.5,2.8,3.1,5.5,4.5,8.3
							c2.9,5.4,6,10.9,8.6,16.1c1.3,2.6,2.7,5.2,4,7.7c1.3,2.5,2.4,5,3.6,7.4c2.4,4.8,4.4,9.5,6.3,13.6c0.5,1.1,0.9,2.1,1.5,3.1
							c0.5,1,1.1,2,1.6,2.9c1,1.9,2,3.7,2.9,5.4c1.8,3.4,3.4,6.4,4.6,8.9c1.2,2.5,2.2,4.4,2.9,5.7c0.3,0.7,0.6,1.2,0.8,1.5
							c0.1,0.2,0.1,0.3,0.2,0.4c0,0.1,0,0.1,0,0.1s0,0,0-0.1c-0.1-0.1-0.1-0.2-0.2-0.4c-0.1-0.3-0.3-0.9-0.6-1.5
							c-0.5-1.3-1.2-3.3-2.1-5.8c-0.9-2.5-2-5.6-3.2-9.1c-0.6-1.7-1.3-3.6-2-5.6c-0.3-1-0.7-2-1-3c-0.3-1-0.6-2.1-0.9-3.2
							c-1.2-4.3-2.5-9.1-4.1-14.1c-0.8-2.5-1.5-5.1-2.3-7.7c-0.8-2.6-1.7-5.3-2.6-8.1c-1.8-5.4-3.8-11.3-5.8-16.9
							c-2-5.7-4.3-11.7-6.7-17.5c-1.2-2.9-2.4-5.9-3.6-8.8c-1.2-2.9-2.6-5.8-3.8-8.7c-1.3-2.9-2.6-5.7-4-8.6
							c-0.5-1.1-1.1-2.3-1.6-3.4c1.2,1.6,2.5,3.2,3.8,4.8c1.9,2.4,3.7,5,5.6,7.5c1.9,2.5,3.8,5.1,5.6,7.7c1.8,2.6,3.7,5.3,5.5,7.9
							c1.8,2.6,3.6,5.4,5.3,8c1.1,1.6,1.6,2.4,2.6,4c0.8,1.4,1.7,2.7,2.5,4.1c1.7,2.7,3.4,5.4,5,8.1c1.6,2.6,3.1,5.4,4.6,8
							c0.8,1.3,1.5,2.6,2.2,3.9c0.7,1.3,1.4,2.6,2.1,3.9c1.4,2.6,2.8,5.1,4.1,7.6c1.3,2.5,2.5,4.9,3.7,7.3c2.6,4.7,4.8,9.2,6.9,13.4
							c2.1,4.1,3.8,8,5.4,11.4c0.8,1.7,1.5,3.3,2.2,4.8c0.6,1.4,1.2,2.8,1.7,4c0.3,0.6,0.5,1.2,0.7,1.7c0.3,0.5,0.7,1,1,1.5
							c0.6,0.9,1.2,1.7,1.7,2.4c0.5,0.6,0.8,1.1,1,1.5c0.1,0.2,0.2,0.3,0.3,0.4c0,0.1,0.1,0.1,0.1,0.1s0,0,0-0.1
							c-0.1-0.1-0.1-0.2-0.3-0.4c-0.2-0.3-0.5-0.8-0.8-1.5c-0.4-0.6-0.8-1.5-1.3-2.4c-0.2-0.5-0.6-1-0.8-1.5
							c-0.2-0.6-0.3-1.1-0.5-1.8c-0.3-1.2-0.7-2.6-1.1-4.1c-0.4-1.5-0.9-3.1-1.5-4.9c-1.1-3.5-2.2-7.4-3.6-11.7
							c-1.4-4.3-3-9-4.7-13.9c-0.8-2.4-1.7-5.1-2.6-7.6c-0.8-2.3-1.8-4.7-2.7-7.2c0.6,1,1.3,1.9,1.9,2.9c3.9,6.2,7.8,12.5,11.3,18.5
							c1.8,3,3.5,6,5.2,8.9c1.6,2.9,3.2,5.8,4.8,8.5c3.1,5.5,5.9,10.9,8.4,15.7c0.6,1.2,1.2,2.4,1.9,3.6c0.7,1.1,1.3,2.3,2,3.4
							c1.3,2.2,2.5,4.3,3.6,6.2c2.3,3.9,4.2,7.4,5.7,10.2c0.8,1.4,1.5,2.7,2.1,3.8c0.1,0.1,0.1,0.3,0.2,0.4c0,0.1,0.1,0.1,0.1,0.2
							c0.1,0.1,0.1,0.1,0.2,0.2c0.2,0.2,0.4,0.5,0.6,0.7c0.4,0.4,0.8,0.9,1.1,1.2c0.7,0.7,1.1,1.3,1.5,1.7c0.2,0.2,0.2,0.3,0.4,0.4
							c0,0.1,0.1,0.2,0.1,0.2s0-0.1-0.1-0.2c-0.2-0.1-0.2-0.2-0.4-0.4c-0.3-0.4-0.7-1-1.3-1.7c-0.3-0.4-0.6-0.8-0.9-1.2
							c-0.2-0.2-0.3-0.5-0.5-0.7c-0.1-0.1-0.2-0.3-0.2-0.4c-0.1-0.1-0.1-0.3-0.2-0.4c-0.5-1.1-1-2.4-1.6-3.9c-0.6-1.4-1.3-3.1-2-4.8
							c-0.7-1.7-1.6-3.6-2.4-5.7c-0.9-2-1.8-4.2-2.7-6.5c-0.5-1.1-1-2.3-1.5-3.5c-0.5-1.2-0.9-2.4-1.4-3.7c-1.9-5-4-10.5-6.5-16.3
							c-1.2-2.9-2.4-5.9-3.7-8.9c-1.3-3-2.7-6.1-4.1-9.2c-0.7-1.6-1.4-3.2-2.2-4.8c-0.7-1.6-1.5-3.2-2.3-4.8
							c-1.5-3.2-3.1-6.5-4.7-9.8c-3.3-6.5-6.7-13.3-10.4-19.9c-1.8-3.3-3.6-6.7-5.5-9.9c-1.9-3.3-3.8-6.6-5.7-9.8
							c-1.9-3.2-3.9-6.5-5.8-9.6c-1.1-1.8-2.3-3.6-3.4-5.5c26.6,33.2,126.6,158.2,128.9,161.3c-1.6-2.3-48.9-71.5-84-122.7
							c0.4,0.4,0.9,0.7,1.3,1.1c13.4,11.7,26.7,23.6,39.8,35.6c12.9,11.9,25.8,24.2,38.4,36.5c3,2.9,6,5.8,8.8,8.7
							c1.4,1.4,2.9,2.9,4.3,4.2c1.4,1.4,2.9,2.7,4.3,4c5.6,5.3,10.9,10.4,15.8,15.1c4.9,4.7,9.3,9,13.2,12.8
							c1.9,1.9,3.8,3.7,5.4,5.4c1.9,1.5,3.7,2.9,5.3,4.2c3.2,2.5,5.7,4.5,7.4,5.9c1,0.6,1.8,1.1,2.3,1.4c0.1,0.1,0.2,0.1,0.3,0.2
							c0,0,0.1,0.1,0.1,0.1c0,0,0,0,0,0c0,0,0,0,0,0c0,0,0,0,0,0c0,0,0,0,0,0c0,0-0.1-0.1-0.1-0.1c-0.1-0.1-0.2-0.1-0.3-0.2
							c-0.5-0.3-1.3-0.8-2.1-1.5c-1.6-1.4-3.9-3.6-6.7-6.3c-1.4-1.4-3-2.9-4.7-4.6c-1.5-1.8-3.1-3.7-4.8-5.8
							c-3.4-4.1-7.3-8.8-11.6-13.9c-4.2-5.1-8.9-10.6-13.8-16.4c-2.5-2.9-5-5.9-7.5-9c-2.6-3.1-5.2-6.2-7.9-9.4
							c-11.3-13.3-23-26.5-34.7-39.3c-11.9-13-24.2-25.8-36.6-38.4c-1.6-1.6-3.1-3.2-4.7-4.7c7,4.5,14.3,9.2,21.7,14.1
							c18.5,12.2,36.9,24.7,54.9,37.4c17.9,12.7,35.7,25.8,53.2,39.1c8,6.1,16.1,12.3,23.9,18.5c7.5,5.9,14.8,11.5,21.4,16.6
							c6.6,5.1,12.7,9.9,18,14.1c2.7,2.1,5.2,4.1,7.5,5.9c2.4,1.7,4.7,3.3,6.7,4.7c2,1.4,3.8,2.7,5.4,3.8c0.2,0.1,0.4,0.3,0.6,0.4
							c0.1,0.1,0.2,0.1,0.3,0.2c0.1,0.1,0.2,0.1,0.3,0.2c0.4,0.2,0.8,0.4,1.2,0.6c0.8,0.4,1.5,0.7,2.1,1c1.3,0.6,2.3,1.1,2.9,1.4
							c0.2,0.1,0.3,0.1,0.4,0.2c0.1,0,0.1,0.1,0.2,0.1c0,0,0,0,0,0c0,0,0,0,0,0c0,0,0,0,0,0c0,0,0,0,0,0c0,0-0.1-0.1-0.2-0.1
							c-0.1-0.1-0.3-0.1-0.4-0.2c-0.6-0.3-1.6-0.9-2.8-1.5c-0.6-0.3-1.3-0.7-2-1.1c-0.4-0.2-0.8-0.4-1.2-0.6
							c-0.1-0.1-0.2-0.1-0.3-0.2c-0.1-0.1-0.1-0.1-0.2-0.2c-0.2-0.1-0.4-0.3-0.6-0.4c-1.5-1.2-3.1-2.6-5-4.2
							c-1.9-1.6-3.9-3.3-6.2-5.2c-2.1-2-4.4-4.2-6.9-6.5c-4.9-4.6-10.5-9.9-16.6-15.5c-6.1-5.7-12.8-11.8-19.8-18.3
							c-7.3-6.8-14.8-13.7-22.3-20.3c-16.4-14.6-33.2-29.1-50.1-43c-16.4-13.5-33.1-26.7-50-39.6c2.7,1.4,5.3,2.8,8,4.3
							c3,1.6,6,3.2,9.1,4.8c12.2,6.5,24.5,13.2,36.7,19.5c3.1,1.6,6.2,3.2,9.3,4.8c3.1,1.6,6.2,3.2,9.3,4.8
							c6.2,3.2,12.3,6.5,18.4,9.6c6,3.2,12.1,6.3,18.1,9.5c3,1.6,5.9,3.2,8.9,4.7c2.9,1.5,5.9,3.1,8.8,4.6c5.8,3,11.5,6.1,17,9.1
							c5.5,2.9,11,5.8,16.3,8.6c9.9,5.3,19.9,10.6,29.8,16c4.6,2.5,9,4.9,13.2,7.2c2.1,1.1,4.1,2.3,6.2,3.3c2,1,4,1.9,6,2.8
							c3.8,1.8,7.5,3.6,10.8,5.2c3.3,1.6,6.4,3,9.2,4.3c2.8,1.3,5.2,2.5,7.4,3.5c0.3,0.1,0.5,0.3,0.8,0.4c0.1,0.1,0.2,0.1,0.4,0.2
							c0.2,0,0.2,0.1,0.4,0.1c0.5,0.1,1.1,0.3,1.6,0.4c1,0.3,1.9,0.5,2.7,0.7c1.6,0.4,2.8,0.8,3.7,1c0.2,0.1,0.4,0.1,0.5,0.1
							c0.1,0,0.2,0,0.2,0.1c0,0,0,0,0,0c0,0,0,0,0,0c0,0,0,0,0,0c0,0,0,0,0,0c-0.1,0-0.1,0-0.2-0.1c-0.2-0.1-0.3-0.1-0.5-0.2
							c-0.8-0.3-2-0.7-3.6-1.2c-0.8-0.3-1.7-0.6-2.6-0.9c-0.5-0.2-1-0.3-1.5-0.5c-0.1,0-0.3-0.1-0.4-0.1c-0.1-0.1-0.2-0.1-0.4-0.2
							c-0.3-0.1-0.5-0.3-0.8-0.4c-2.1-1.2-4.5-2.5-7.2-4c-2.7-1.5-5.7-3.2-8.9-5c-3.2-1.8-6.7-3.8-10.4-6c-1.9-1.1-3.8-2.2-5.7-3.3
							c-1.9-1.1-3.9-2.5-6-3.7c-4.1-2.5-8.3-5.3-12.8-8.1c-9.6-6.1-19.2-12.1-28.8-18.1c-5.1-3.2-10.4-6.5-15.7-9.8
							c-5.3-3.3-10.8-6.8-16.4-10.2c-2.8-1.7-5.6-3.4-8.4-5.2c-2.8-1.7-5.7-3.5-8.5-5.3c-5.7-3.5-11.6-7.1-17.4-10.7
							c-5.8-3.6-11.7-7.3-17.6-10.9c-3-1.8-6-3.6-8.9-5.4c-3-1.8-5.9-3.6-8.9-5.5c-5.9-3.6-11.9-7.2-17.8-10.8
							c-5.9-3.6-11.8-7.2-17.7-10.6c-5.9-3.5-11.7-7-17.5-10.4c-5.3-3.2-10.7-6.2-15.9-9.3c11.8,5.1,23.7,10.2,35.4,15.4
							c7,3.1,14.2,6.4,21.2,9.6c7.1,3.2,14.3,6.4,21.4,9.7c27.8,12.9,55.5,26.5,82.8,40.6c12.5,6.5,25,13.2,37.4,20
							c3,1.6,5.9,3.2,8.7,4.8c1.4,0.8,2.9,1.6,4.3,2.4c1.4,0.8,2.8,1.6,4.2,2.3c5.6,2.8,11.1,5.8,16.3,8.5c9.5,5,19,10.1,28.4,15.3
							c4.2,2.3,8.1,4.5,11.8,6.5c1.8,1,3.5,2,5.2,2.9c1.8,0.7,3.5,1.4,5.1,2.1c6.5,2.7,11.5,4.8,15,6.3c1.7,0.7,3,1.3,3.9,1.7
							c0.2,0.1,0.4,0.2,0.6,0.3C558.7,348.6,558.7,348.6,558.8,348.7C558.8,348.7,558.8,348.7,558.8,348.7
							C558.8,348.7,558.8,348.7,558.8,348.7C558.8,348.7,558.8,348.7,558.8,348.7C558.8,348.7,558.8,348.7,558.8,348.7z"/>
						<linearGradient id="XMLID_77_" gradientUnits="userSpaceOnUse" x1="325.0215" y1="-3.0456" x2="325.3486" y2="-2.9421">
							<stop  offset="0" style="stop-color:#00364F"/>
							<stop  offset="0.2519" style="stop-color:#0F4565"/>
							<stop  offset="1" style="stop-color:#FF7F8C"/>
						</linearGradient>
						<path id="XMLID_389_" fill="url(#XMLID_77_)" d="M324.9-3C324.9-3,324.9-3,324.9-3C324.9-3,324.9-3,324.9-3c0.1,0,0.1,0,0.1,0
							c0.2,0,0.3,0,0.3,0s-0.1,0-0.3,0C325-3,325-3,324.9-3C324.9-3.1,324.9-3.1,324.9-3C324.9-3.1,324.9-3.1,324.9-3
							C324.9-3.1,324.9-3.1,324.9-3C324.9-3.1,324.9-3.1,324.9-3z"/>
						<linearGradient id="XMLID_78_" gradientUnits="userSpaceOnUse" x1="211.2831" y1="-39.5901" x2="211.3537" y2="-39.5677">
							<stop  offset="0" style="stop-color:#00364F"/>
							<stop  offset="0.2519" style="stop-color:#0F4565"/>
							<stop  offset="1" style="stop-color:#FF7F8C"/>
						</linearGradient>
						<path id="XMLID_390_" fill="url(#XMLID_78_)" d="M211.3-39.5c0,0-0.1-0.1-0.1-0.1L211.3-39.5z"/>
						<linearGradient id="XMLID_80_" gradientUnits="userSpaceOnUse" x1="211.3936" y1="-39.6772" x2="211.6631" y2="-39.5919">
							<stop  offset="0" style="stop-color:#00364F"/>
							<stop  offset="0.2519" style="stop-color:#0F4565"/>
							<stop  offset="1" style="stop-color:#FF7F8C"/>
						</linearGradient>
						<path id="XMLID_391_" fill="url(#XMLID_80_)" d="M211.7-39.7c0,0-0.1,0-0.3,0c0,0,0,0-0.1,0c0,0,0,0,0,0c0,0,0,0,0,0
							c0,0,0,0,0,0c0,0,0,0,0,0c0,0,0,0,0,0c0,0,0,0,0,0c0,0,0,0,0.1,0C211.6-39.7,211.7-39.7,211.7-39.7z"/>
						<linearGradient id="XMLID_81_" gradientUnits="userSpaceOnUse" x1="-48.0758" y1="288.3595" x2="-48.0614" y2="288.364">
							<stop  offset="0" style="stop-color:#00364F"/>
							<stop  offset="0.2519" style="stop-color:#0F4565"/>
							<stop  offset="1" style="stop-color:#FF7F8C"/>
						</linearGradient>
						<path id="XMLID_392_" fill="url(#XMLID_81_)" d="M-48.1,288.4C-48.1,288.4-48.1,288.4-48.1,288.4
							C-48.1,288.4-48.1,288.4-48.1,288.4z"/>
						<linearGradient id="XMLID_83_" gradientUnits="userSpaceOnUse" x1="-48.0076" y1="288.3591" x2="-47.8908" y2="288.396">
							<stop  offset="0" style="stop-color:#00364F"/>
							<stop  offset="0.2519" style="stop-color:#0F4565"/>
							<stop  offset="1" style="stop-color:#FF7F8C"/>
						</linearGradient>
						<path id="XMLID_393_" fill="url(#XMLID_83_)" d="M-48.1,288.4c0.1,0,0.2,0,0.2,0S-48,288.4-48.1,288.4z"/>
						<linearGradient id="XMLID_84_" gradientUnits="userSpaceOnUse" x1="-48.1051" y1="288.3563" x2="-48.0811" y2="288.3639">
							<stop  offset="0" style="stop-color:#00364F"/>
							<stop  offset="0.2519" style="stop-color:#0F4565"/>
							<stop  offset="1" style="stop-color:#FF7F8C"/>
						</linearGradient>
						<path id="XMLID_394_" fill="url(#XMLID_84_)" d="M-48.1,288.4C-48.1,288.4-48.1,288.4-48.1,288.4L-48.1,288.4
							C-48.1,288.4-48.1,288.4-48.1,288.4z"/>
						<linearGradient id="XMLID_85_" gradientUnits="userSpaceOnUse" x1="-47.7934" y1="288.4991" x2="-47.7277" y2="288.5199">
							<stop  offset="0" style="stop-color:#00364F"/>
							<stop  offset="0.2519" style="stop-color:#0F4565"/>
							<stop  offset="1" style="stop-color:#FF7F8C"/>
						</linearGradient>
						<path id="XMLID_395_" fill="url(#XMLID_85_)" d="M-47.8,288.4C-47.8,288.4-47.8,288.4-47.8,288.4
							C-47.8,288.4-47.8,288.4-47.8,288.4c0,0.2,0,0.2,0,0.2S-47.8,288.6-47.8,288.4C-47.8,288.4-47.8,288.4-47.8,288.4
							C-47.8,288.4-47.8,288.4-47.8,288.4C-47.8,288.4-47.8,288.4-47.8,288.4C-47.8,288.4-47.8,288.4-47.8,288.4
							C-47.8,288.4-47.8,288.4-47.8,288.4z"/>
						<linearGradient id="XMLID_86_" gradientUnits="userSpaceOnUse" x1="-47.7742" y1="288.3837" x2="-47.7656" y2="288.3864">
							<stop  offset="0" style="stop-color:#00364F"/>
							<stop  offset="0.2519" style="stop-color:#0F4565"/>
							<stop  offset="1" style="stop-color:#FF7F8C"/>
						</linearGradient>
						<path id="XMLID_396_" fill="url(#XMLID_86_)" d="M-47.8,288.4C-47.8,288.4-47.8,288.4-47.8,288.4
							C-47.8,288.4-47.8,288.4-47.8,288.4z"/>
						<linearGradient id="XMLID_87_" gradientUnits="userSpaceOnUse" x1="-47.7575" y1="288.3848" x2="-47.739" y2="288.3907">
							<stop  offset="0" style="stop-color:#00364F"/>
							<stop  offset="0.2519" style="stop-color:#0F4565"/>
							<stop  offset="1" style="stop-color:#FF7F8C"/>
						</linearGradient>
						<path id="XMLID_397_" fill="url(#XMLID_87_)" d="M-47.8,288.4L-47.8,288.4C-47.7,288.4-47.7,288.4-47.8,288.4
							C-47.8,288.4-47.7,288.4-47.8,288.4z"/>
						<linearGradient id="XMLID_88_" gradientUnits="userSpaceOnUse" x1="-47.803" y1="288.3803" x2="-47.7768" y2="288.3886">
							<stop  offset="0" style="stop-color:#00364F"/>
							<stop  offset="0.2519" style="stop-color:#0F4565"/>
							<stop  offset="1" style="stop-color:#FF7F8C"/>
						</linearGradient>
						<path id="XMLID_398_" fill="url(#XMLID_88_)" d="M-47.8,288.4C-47.8,288.4-47.8,288.4-47.8,288.4
							C-47.8,288.4-47.8,288.4-47.8,288.4z"/>
						<linearGradient id="XMLID_91_" gradientUnits="userSpaceOnUse" x1="-47.8715" y1="288.3732" x2="-47.8175" y2="288.3903">
							<stop  offset="0" style="stop-color:#00364F"/>
							<stop  offset="0.2519" style="stop-color:#0F4565"/>
							<stop  offset="1" style="stop-color:#FF7F8C"/>
						</linearGradient>
						<path id="XMLID_399_" fill="url(#XMLID_91_)" d="M-47.8,288.4C-47.9,288.4-47.9,288.4-47.8,288.4
							C-47.9,288.4-47.9,288.4-47.8,288.4z"/>
						<linearGradient id="XMLID_92_" gradientUnits="userSpaceOnUse" x1="-47.8188" y1="288.3802" x2="-47.8151" y2="288.3814">
							<stop  offset="0" style="stop-color:#00364F"/>
							<stop  offset="0.2519" style="stop-color:#0F4565"/>
							<stop  offset="1" style="stop-color:#FF7F8C"/>
						</linearGradient>
						<path id="XMLID_400_" fill="url(#XMLID_92_)" d="M-47.8,288.4C-47.8,288.4-47.8,288.4-47.8,288.4
							C-47.8,288.4-47.8,288.4-47.8,288.4z"/>
						<linearGradient id="XMLID_93_" gradientUnits="userSpaceOnUse" x1="-73.0434" y1="256.8929" x2="-72.9428" y2="256.9247">
							<stop  offset="0" style="stop-color:#00364F"/>
							<stop  offset="0.2519" style="stop-color:#0F4565"/>
							<stop  offset="1" style="stop-color:#FF7F8C"/>
						</linearGradient>
						<path id="XMLID_401_" fill="url(#XMLID_93_)" d="M-73,256.8C-73,256.8-73,256.8-73,256.8C-73,256.8-73,256.8-73,256.8
							C-73,256.8-73,256.8-73,256.8C-73,256.8-73,256.8-73,256.8C-73.1,256.8-73.1,256.8-73,256.8C-73.1,256.8-73,256.8-73,256.8
							C-73,256.8-73,256.8-73,256.8c0,0.1,0,0.2,0,0.2S-73,257-73,256.8C-73,256.8-73,256.8-73,256.8z"/>
						<linearGradient id="XMLID_94_" gradientUnits="userSpaceOnUse" x1="301.5346" y1="362.6476" x2="301.5792" y2="362.6617">
							<stop  offset="0" style="stop-color:#00364F"/>
							<stop  offset="0.2519" style="stop-color:#0F4565"/>
							<stop  offset="1" style="stop-color:#FF7F8C"/>
						</linearGradient>
						<path id="XMLID_402_" fill="url(#XMLID_94_)" d="M301.6,362.7C301.6,362.7,301.5,362.6,301.6,362.7
							C301.6,362.7,301.6,362.7,301.6,362.7z"/>
					</g>
				</g>
			</g>
			<linearGradient id="XMLID_95_" gradientUnits="userSpaceOnUse" x1="1212.7061" y1="460.5359" x2="1212.9224" y2="460.5359">
				<stop  offset="0" style="stop-color:#00364F"/>
				<stop  offset="0.2519" style="stop-color:#0F4565"/>
				<stop  offset="1" style="stop-color:#FF7F8C"/>
			</linearGradient>
			<path id="XMLID_134_" clip-path="url(#XMLID_5_)" fill="url(#XMLID_95_)" d="M1212.9,460.2c0-0.1,0-0.1,0-0.2
				c-0.1,0.4-0.1,0.8-0.2,1.2C1212.8,460.8,1212.8,460.5,1212.9,460.2z"/>
			<g id="XMLID_284_" clip-path="url(#XMLID_5_)">
				<linearGradient id="XMLID_96_" gradientUnits="userSpaceOnUse" x1="1337.5352" y1="623.9636" x2="1234.0404" y2="19.4938">
					<stop  offset="0" style="stop-color:#FF7F8C"/>
					<stop  offset="0.572" style="stop-color:#FFCFB9"/>
					<stop  offset="1" style="stop-color:#FFECE4"/>
				</linearGradient>
				<path id="XMLID_51_" fill="url(#XMLID_96_)" d="M1519.9,1101.9c3.7-10.9,0.1-22.8-3.7-33.7c-26.5-76.2-66.4-143.2-103.3-214.2
					c-31.3-60.2-62.7-120.4-94-180.6c-24.6-47.3-51.8-93.3-75.8-141c-10.1-20-25.4-43.4-29.3-65.7c-0.4-2.2-0.6-4.4-0.8-6.7
					c-3.8,16.1-3.9,33.5,1.6,47.8c16,48,28,97,47,144c63,165,129.5,323.1,213.6,478.9c6.5-1.2,12.9-3,19-5.6
					C1505.2,1120.8,1516.1,1113.3,1519.9,1101.9z"/>
				<linearGradient id="XMLID_97_" gradientUnits="userSpaceOnUse" x1="1074.335" y1="333.4178" x2="1155.335" y2="254.4178">
					<stop  offset="0" style="stop-color:#FF7F8C"/>
					<stop  offset="0.572" style="stop-color:#FFCFB9"/>
					<stop  offset="1" style="stop-color:#FFECE4"/>
				</linearGradient>
				<path id="XMLID_156_" fill="url(#XMLID_97_)" d="M1160.5,369.6c-3.2-0.9-5.8-3.4-8.1-5.8c-16-16.1-31.8-32.5-47.3-49.1
					c-7-7.6-14.6-14.8-20.8-23c-1.4-1.8-8.2-13.5-10.7-13.5c-1,0-19.3-15.7-30.7-25.3c-4.7-4-11.6-5.4-16.4-1.1
					c19.3,4.6,32.3,25.3,46.2,39.2c27,28,50,55,78,82c3,2,7,4,11,3c5.4-2.9,7.2-8,7.5-13.6C1168.1,367.1,1166.4,371.2,1160.5,369.6z
					"/>
				<linearGradient id="XMLID_98_" gradientUnits="userSpaceOnUse" x1="1018.6398" y1="322.9275" x2="1084.6399" y2="275.5941">
					<stop  offset="0" style="stop-color:#FF7F8C"/>
					<stop  offset="0.572" style="stop-color:#FFCFB9"/>
					<stop  offset="1" style="stop-color:#FFECE4"/>
				</linearGradient>
				<path id="XMLID_154_" fill="url(#XMLID_98_)" d="M1081.8,358.2c-1.7-1-62.7-62-62.7-62s-17.3-17.3-29.7-26.7
					c-5.7-4.3-11-4.5-14.9-2.7c18.1,7.3,30.2,24.5,43,38.2c19,20,35,42,59,56c3.9,1.9,9.4,1.8,12.5-0.9
					C1086.3,360.2,1082.6,358.7,1081.8,358.2z"/>
				<linearGradient id="XMLID_99_" gradientUnits="userSpaceOnUse" x1="1013.6982" y1="345.8621" x2="1064.3649" y2="313.8621">
					<stop  offset="0" style="stop-color:#FF7F8C"/>
					<stop  offset="0.572" style="stop-color:#FFCFB9"/>
					<stop  offset="1" style="stop-color:#FFECE4"/>
				</linearGradient>
				<path id="XMLID_151_" fill="url(#XMLID_99_)" d="M1054.6,378c1,2.1,2,4.1,3.1,5.1c-8.7-8.2-17.4-16.3-26.6-23.9
					c-7.9-6.5-16.6-11.2-24-18.1c-4.1-3.8-9.2-6.7-13-10.7c-1.8-1.8-3-4.1-4.6-6.1c-2.1-2.6-4.7-4.6-7.4-6.6c-5-3.7-12-8.3-18.6-6.9
					c-0.1,0-0.1,0-0.2,0c0.8,0.3,1.6,0.7,2.2,1.2c31,26,54,59,92,73C1058.7,381.5,1056.8,379.7,1054.6,378z"/>
				<linearGradient id="XMLID_100_" gradientUnits="userSpaceOnUse" x1="984.9405" y1="402.2071" x2="1052.6072" y2="373.5404">
					<stop  offset="0" style="stop-color:#FF7F8C"/>
					<stop  offset="0.572" style="stop-color:#FFCFB9"/>
					<stop  offset="1" style="stop-color:#FFECE4"/>
				</linearGradient>
				<path id="XMLID_143_" fill="url(#XMLID_100_)" d="M968.6,371c12,28,43,45,71,53c-0.7-2.3-1.6-4.4-2.7-6.4
					c-7.2-3.1-15.1-6.3-21.5-10.5c-7.3-4.7-14.6-9.5-22-14.2c0,0-18.3-24.3-23.7-26.3c-1.7-0.6-3.8-0.7-5.7-0.4
					C966,367.4,967.7,368.8,968.6,371z"/>
				<linearGradient id="XMLID_101_" gradientUnits="userSpaceOnUse" x1="1205.6405" y1="714.2529" x2="964.1526" y2="-122.7053">
					<stop  offset="0" style="stop-color:#00364F"/>
					<stop  offset="0.2519" style="stop-color:#0F4565"/>
					<stop  offset="1" style="stop-color:#FF7F8C"/>
				</linearGradient>
				<path id="XMLID_158_" fill="url(#XMLID_101_)" d="M1261.6,652c-19-47-31-96-47-144c-5.4-14-5.4-31-1.9-46.9
					c0.1-0.4,0.1-0.8,0.2-1.2c-1.2-18,4.6-36.7,6.4-53.7c0.2-10.4-0.6-20.8-2.7-31.2c-9-41-15-80-17-121c0-0.6,0-1.4-0.1-2.1
					c0,0,0,0,0,0c-14.3,1-22.7,36-23,44s-1,33-1.3,38.3c-0.4,6.9-3,14-4.8,20.6c-0.6,2.1-0.8,4.9-1.3,7.6
					c-0.3,5.6-2.1,10.7-7.5,13.6c-4,1-8-1-11-3c-28-27-51-54-78-82c-13.9-13.9-26.9-34.6-46.2-39.2c-0.3,0.3-0.6,0.6-0.9,0.9
					c-6.2,6.8,3.5,20.8,7.9,26.5c4.8,6.3,11.5,10,16.5,15.7c5.7,6.3,19.3,26.3,20.3,27c1,0.7,14.7,17.7,20.7,30
					c0.3,0.7,0.6,1.3,0.8,1.9c0-0.3,0-0.5-0.1-0.8c0,0.3,0.1,0.5,0.1,0.8c1.8,4.7,0,6.1-2.5,6.2c-3.2,2.7-8.7,2.9-12.5,0.9
					c-24-14-40-36-59-56c-12.8-13.6-24.8-30.9-43-38.2c-4.5,2.1-6.9,6.8-5.5,10.7c2.7,7.3,27.7,37,29.3,38
					c9.2,5.5,17.4,17.8,24.8,25.6c6.4,6.8,12.8,13.6,19.2,20.5c2.9,3.1,5.8,6.4,8.5,9.7c1.4,1.7,2.5,4.3,3.6,6.7
					c2.2,1.7,4.2,3.5,3,7c-38-14-61-47-92-73c-0.7-0.4-1.4-0.8-2.2-1.2c-17,3.8,16.3,35.6,20.9,40.8c9,10.2,19.1,18.4,27.3,29.2
					c5.4,4.1,10.1,13.3,14,18.9c4.3,6.2,8.6,12,12.7,18.4c-0.4-0.2-0.8-0.4-1.3-0.5c1.1,2,2,4.1,2.7,6.4c-28-8-59-25-71-53
					c-0.9-2.2-2.5-3.6-4.5-4.9c-4.1,0.5-7.7,2.4-7.3,3.1c0.7,1,14.3,30.3,18.3,34.3s21.3,22.7,28.7,26.7c7.3,4,21.1,14.5,22,16
					c21.6,35.6,54.4,52.6,85.9,76.7c35.7,27.2,44.4,79.1,54.7,119.9c6.1,24.5,12.3,49,18.4,73.5c13.5,54,27.1,108,40.6,161.9
					c7.5,29.9,15,59.9,27.3,88.2c10.6,24.5,24.8,47.5,41.8,68.1c8.7,10.6,18.2,20.5,28.4,29.7c9.8,8.8,19.1,11.5,30.2,17.8
					c23.5,13.1,42.9,33.3,67.7,43.6c17,7,36.1,8.9,54.2,5.5C1391,975.1,1324.6,817,1261.6,652z"/>
				<linearGradient id="XMLID_102_" gradientUnits="userSpaceOnUse" x1="1192.1509" y1="343.3649" x2="1267.1509" y2="281.0316">
					<stop  offset="0" style="stop-color:#FF7F8C"/>
					<stop  offset="0.572" style="stop-color:#FFCFB9"/>
					<stop  offset="1" style="stop-color:#FFECE4"/>
				</linearGradient>
				<path id="XMLID_155_" fill="url(#XMLID_102_)" d="M1216.6,375c2.2,10.4,2.9,20.8,2.7,31.2c0-0.5,0.1-0.9,0.1-1.4
					c1-11.5,7.4-35.7,1.7-46.6c-4-7.7-14-77-14-77s6.7-30.3-7.7-29.3c0.1,0.8,0.1,1.5,0.1,2.1C1201.6,295,1207.6,334,1216.6,375z"/>
			</g>
			<linearGradient id="XMLID_104_" gradientUnits="userSpaceOnUse" x1="434.7159" y1="1212.2081" x2="556.2098" y2="652.7361">
				<stop  offset="0" style="stop-color:#00364F"/>
				<stop  offset="0.2519" style="stop-color:#0F4565"/>
				<stop  offset="1" style="stop-color:#FF7F8C"/>
			</linearGradient>
			<path id="XMLID_294_" clip-path="url(#XMLID_5_)" fill="url(#XMLID_104_)" d="M1026.4,653.9c0,0-197.3,69.7-274.5,96.1
				c-77.1,26.4-180.7,60.8-180.7,60.8l-136.8,49.9c0,0-88.2,36.2-184.5,61.3c-96.3,25.1-95.8,32.3-146.3,36.3
				c-50.4,4-114.1,33-114.1,33l6.9,19.1c31.3-10.1,62.7-19,94-29.4c52-16,105-19,154-40c74-31,148-52,223-80c17-7,35-15,52-21
				c72-26,141-53,213-78c16-5,32-9,47-15c9-4,18-7,28-9c22-5,42-8,63-15c47-16,92-36,140-51c6.9-2.2,13.8-4.4,20.7-6.5
				c6.5-6.6,13-13.2,19.5-19.8L1026.4,653.9z"/>
			<linearGradient id="XMLID_105_" gradientUnits="userSpaceOnUse" x1="1169.917" y1="1371.863" x2="1291.4109" y2="812.3911">
				<stop  offset="0" style="stop-color:#00364F"/>
				<stop  offset="0.2519" style="stop-color:#0F4565"/>
				<stop  offset="1" style="stop-color:#FF7F8C"/>
			</linearGradient>
			<path id="XMLID_293_" clip-path="url(#XMLID_5_)" fill="url(#XMLID_105_)" d="M1332.4,549.6l-166,56.6
				c-5.9,7.1-11.9,14.2-18,21.2c78.4-26,155.7-52.6,234.2-80.5c48.9-17.5,98-33.7,146.4-51.6l19.6-23.6
				C1526.2,476.8,1332.4,549.6,1332.4,549.6z"/>
			<g id="XMLID_12_" clip-path="url(#XMLID_5_)">
				<g id="XMLID_53_">
					<path id="XMLID_115_" fill="#00364F" d="M962.6,753.1c2.3,40.1,5.1,80.2,6.6,120.3c0.7,19.2,0.4,39,3.1,58.1
						c0.8,5.8,4.3,9.7,10.5,8.7c3.5-0.6,6.9-2.4,10.2-3.8c4.6-2,9.1-4,13.6-6c8.9-4,17.8-7.9,26.9-11.4c8.6-3.3,17.5-5.5,26.1-8.7
						c8.5-3.3,16.5-7.7,24.8-11.5c8.9-4.1,17.9-7.8,27-11.5c3-1.2,11.7-6.7,13.9-2.5c0.8,1.5,0.4,4.9,0.5,6.6
						c0.1,2.9,0.2,5.8,0.2,8.7c0.1,9.6-0.3,19.3-0.4,28.9c-0.1,19.8,0.6,39.7,1.2,59.5c1.5,44.6,1.1,89.2,3.7,133.9
						c0.2,3.2,5.2,3.2,5,0c-2.3-39.7-2.2-79.5-3.2-119.2c-0.5-19.5-1.4-39-1.6-58.5c-0.2-19.4,1.8-39.4-0.3-58.7
						c-0.6-5.8-3.9-9.4-10-7.5c-8.5,2.5-16.8,6.7-24.9,10.2c-8.8,3.7-17.5,7.8-26.1,11.9c-8.7,4.2-17.6,6.9-26.8,10
						c-17.3,5.8-33.8,13.7-50.5,21c-4.1,1.8-11.8,6.9-14.6,1.2c-0.8-1.6-0.6-4.6-0.7-6.4c-0.2-2.9-0.4-5.8-0.6-8.7
						c-0.6-9.7-1-19.5-1.4-29.2c-1.7-45-4.6-90-7.2-134.9C967.4,749.9,962.4,749.8,962.6,753.1L962.6,753.1z"/>
				</g>
				<g id="XMLID_52_">
					<path id="XMLID_112_" fill="#00364F" d="M490.4,906.5c-2.5,20.5,1.6,40.9,6.8,60.7c5.5,20.9,11.6,41.4,14.1,62.9
						c4.9,41.4,1.4,83.2,3.4,124.8c1.1,23.2,4.1,46.4,11,68.6c1,3.1,5.8,1.8,4.8-1.3c-12.5-40.2-11.6-82.6-11.5-124.2
						c0.1-20.8-0.1-41.7-2.2-62.4c-2-20.1-6.6-39.5-12-59c-6.3-22.9-12.4-46.1-9.5-70.1C495.8,903.3,490.8,903.3,490.4,906.5
						L490.4,906.5z"/>
				</g>
				<g id="XMLID_45_">
					<path id="XMLID_109_" fill="#00364F" d="M333.6,956.5c6.6,73,13.2,146.1,13.7,219.4c0.1,20.9-0.2,41.8-1.2,62.6
						c-0.1,3.2,4.9,3.2,5,0c3.4-73.3-0.9-146.6-7-219.6c-1.7-20.8-3.6-41.7-5.5-62.5C338.3,953.3,333.3,953.3,333.6,956.5
						L333.6,956.5z"/>
				</g>
				<g id="XMLID_40_">
					<path id="XMLID_107_" fill="#00364F" d="M640.6,864.9c4.2,37.4,8.5,74.9,12.7,112.3c1,9.2,2.1,18.4,3.1,27.6
						c0.7,6.4,0.3,15.2,4.4,20.6c3.5,4.7,9.4,5.2,14.8,4.3c8.5-1.4,16.9-4.7,25-7.4c16.8-5.5,33.3-11.8,49.5-18.7
						c15.9-6.7,31-15.2,46.7-22.3c3.9-1.8,7.9-3.4,11.9-5c3.2-1.2,9.8-4.8,13.2-4c4.4,1.1,3.6,10.3,3.7,13.7
						c0.1,4.7-0.2,9.4-0.2,14.1c-0.2,18.5,1.1,37.1,1.8,55.6c0.7,18.9,0.1,37.6,3.5,56.2c3.6,19.4,1.1,39.5,0.9,59.1
						c0,3.2,5,3.2,5,0c0.2-17,1.9-34.1,0.3-51.1c-0.8-8.2-3.1-16.1-3.6-24.3c-0.5-8.8-0.2-17.6-0.5-26.4
						c-0.6-18.3-1.3-36.5-1.9-54.8c-0.3-9.2,0-18.4-0.1-27.6c0-5.4,0.7-14.7-4.4-18.3c-5.2-3.6-13.7,0.9-18.7,2.8
						c-7.8,2.9-15.4,6.4-22.8,10.1c-15.8,7.7-31.4,15.6-47.8,22.1c-16.8,6.7-33.8,12.7-51.1,18c-7.5,2.3-20,7.5-22.6-3.6
						c-2.1-8.7-2.2-18.3-3.2-27.2c-4.8-42-9.5-84-14.3-126.1C645.2,861.8,640.2,861.7,640.6,864.9L640.6,864.9z"/>
				</g>
				<g id="XMLID_39_">
					<path id="XMLID_103_" fill="#00364F" d="M805.2,800.5c2.6,39.3,5.2,78.6,7.8,117.9c0.6,9.6,1.3,19.2,1.9,28.7
						c0.3,4.6,0.6,9.2,0.9,13.9c0.3,3.9,0.2,8.1,1.6,11.7c4.8,12,19.3,7.2,28.3,3.9c36.6-13.4,73.2-26.8,109.8-40.1
						c4.3-1.6,8.6-3.2,13-4.7c4-1.4,8.9-2.5,10.7,2.5c0.9,2.6,0.4,5.8,0,8.5c-0.6,3.8-0.8,7.4-0.6,11.2c1.5,19,3,38,3.7,57.1
						c1.5,43.9,0.5,87.9-3,131.8c-0.3,3.2,4.7,3.2,5,0c3.1-38.9,4.2-77.9,3.4-116.9c-0.4-19.5-1.3-39.1-2.7-58.5
						c-0.7-8.7-1.8-16.6-0.7-25.3c0.6-4.3,0.7-9.5-2.3-13c-4.1-5-10.4-3.7-15.8-1.8c-9,3.2-17.9,6.6-26.9,9.8
						c-18.5,6.8-37.1,13.6-55.6,20.3c-8.9,3.3-17.9,6.6-26.8,9.8c-7.1,2.6-14.2,5.8-21.6,7.5c-3,0.7-6.5,1.4-9.5,0
						c-4.9-2.2-4.7-8.2-5-12.8c-0.6-9.6-1.3-19.2-1.9-28.7c-2.9-44.3-5.8-88.5-8.8-132.8C810,797.3,805,797.3,805.2,800.5
						L805.2,800.5z"/>
				</g>
				<g id="XMLID_35_">
					<path id="XMLID_36_" fill="#00364F" d="M1118.8,703c-1,23-1.6,45.9-1.9,68.9c-0.3,21.9-0.8,44,0.2,66
						c0.5,11.2,1.3,22.2,0.4,33.4c-0.5,6.3,1,13.6,8.1,15.4c3.5,0.9,7.2,0.1,10.6-0.9c5.4-1.5,10.6-3.3,15.8-5.2
						c9.5-3.5,18.8-7.5,28.1-11.5c20.1-8.7,40.5-16.8,61-24.5c10.5-4,21.1-7.9,31.6-11.9c4.1-1.5,11.5-6,15.5-3.6
						c4.6,2.8,1.6,9.6,1.2,14.1c-0.5,5.1,0.1,10.2,0,15.4c-0.1,5.6-0.6,11.1-1.1,16.7c-0.9,11.4-2,22.8-2.2,34.3
						c-0.2,10.9,0.1,21.8,0.7,32.6c0.3,5.2,0.6,10.3,1,15.5c0.3,4,0,8.9,1.8,12.6c4.1,8.4,13.6,4.3,19.7,1c11-6,22-12.1,32.9-18.2
						c22.5-12.4,45.1-24.8,67.6-37.3c2.8-1.6,0.3-5.9-2.5-4.3c-19.1,10.5-38.1,21-57.2,31.5c-9.2,5.1-18.5,10.2-27.7,15.3
						c-4.6,2.5-9.2,5.1-13.9,7.6c-4.6,2.5-12.9,8.2-15,0c-1.1-4.5-0.9-9.6-1.2-14.2c-0.4-5.8-0.7-11.6-0.9-17.3
						c-0.4-10.2-0.5-20.5-0.1-30.8c0.4-10.8,1.6-21.6,2.4-32.4c0.8-10.6-0.3-21.6,1.5-32c0.9-5.3,1.3-12-4.2-15
						c-3.1-1.7-6.7-1-9.8,0c-5.1,1.6-10.1,3.8-15.1,5.7c-19.6,7.4-39.2,14.6-58.6,22.3c-19,7.6-37.5,16.5-56.7,23.6
						c-6.4,2.3-25.3,11.7-28,1.4c-1.1-4.2,0.2-9.1,0.3-13.4c0.2-5.4-0.1-10.9-0.4-16.3c-2.6-48-0.8-96.5,1.2-144.5
						C1123.9,699.7,1118.9,699.7,1118.8,703L1118.8,703z"/>
				</g>
				<g id="XMLID_32_">
					<path id="XMLID_33_" fill="#00364F" d="M1124.2,1024.2c20.9,3.3,40.9-9,59.5-16.7c20.6-8.5,41.5-16.3,62.7-23.4
						c10.2-3.4,20.7-6.1,30.9-9.7c4.1-1.4,8.3-5.2,12.7-5.3c7.9-0.3,6.4,9.4,6.4,14.7c0,23.1,0,46.2,0,69.3c0,25.8,0,51.5,0,77.3
						c0,3.2,5,3.2,5,0c0-48.5-0.1-97.1-0.1-145.6c0-7.5,1.3-18.2-8.1-20.4c-3.3-0.8-6.5,0.1-9.5,1.4c-5.5,2.5-10.5,4.6-16.3,6.3
						c-22.4,6.6-44.4,14.5-66.1,22.9c-12,4.7-23.9,9.6-35.7,14.7c-12.6,5.5-26,11.8-40.2,9.6
						C1122.4,1018.9,1121,1023.8,1124.2,1024.2L1124.2,1024.2z"/>
				</g>
				<g id="XMLID_25_">
					<path id="XMLID_31_" fill="#00364F" d="M519,1063.6c19.4-1.7,37.8-7.7,56.1-13.9c19.3-6.5,38.7-12.8,58-19.1
						c4.6-1.5,9.3-3.1,13.9-4.6c3.9-1.3,8.9-3.8,13.2-3.2c6.2,0.8,5.4,8.4,5.6,13c0.2,5.2,0.5,10.5,0.7,15.7
						c0.9,20.9,1.9,41.9,2.8,62.8c0.1,3.2,5.1,3.2,5,0c-0.8-17.7-1.6-35.3-2.4-53c-0.4-8.8-0.8-17.7-1.2-26.5
						c-0.2-5.1-0.1-11.4-4.5-14.9c-4.6-3.7-10.9-1.9-15.9-0.3c-8.4,2.7-16.7,5.5-25.1,8.2c-16.6,5.5-33.2,10.8-49.7,16.4
						c-18.5,6.2-37,12.6-56.6,14.3C515.9,1058.9,515.8,1063.9,519,1063.6L519,1063.6z"/>
				</g>
				<g id="XMLID_18_">
					<path id="XMLID_122_" fill="#00364F" d="M1282.9,683.5c-1.1,22.1-1.9,44.2-2.4,66.3c-0.4,20,0.4,40.2-1.1,60.1
						c-0.5,5.9-0.9,12.7,2.6,17.8c4.1,6,11.5,5.5,17.7,3.7c20.6-5.8,41-12.6,61.4-19.1c10.9-3.5,21-8.5,31.7-12.3
						c11.7-4.2,23.7-7.8,35.4-11.9c3-1,1.7-5.9-1.3-4.8c-9.7,3.3-19.3,6.6-29,9.8c-8.4,2.8-16.2,6.4-24.4,9.7
						c-18.2,7.5-37.9,12.3-56.8,18.1c-4.7,1.4-9.4,2.9-14,4.4c-4.5,1.4-10.9,4.3-15.2,1.1c-5.2-3.9-3.4-13.2-3-18.8
						c1.5-18.1,0.5-36.6,0.8-54.8c0.5-23.1,1.3-46.2,2.4-69.3C1288.1,680.3,1283.1,680.3,1282.9,683.5L1282.9,683.5z"/>
				</g>
			</g>
			<linearGradient id="XMLID_106_" gradientUnits="userSpaceOnUse" x1="777.0593" y1="829.7085" x2="726.3328" y2="557.7584">
				<stop  offset="0" style="stop-color:#00364F"/>
				<stop  offset="0.2519" style="stop-color:#0F4565"/>
				<stop  offset="1" style="stop-color:#FF7F8C"/>
			</linearGradient>
			<path id="XMLID_285_" clip-path="url(#XMLID_5_)" fill="url(#XMLID_106_)" d="M1382.6,547c-78.5,27.9-155.8,54.5-234.2,80.4
				c6.1-7,12.1-14.1,18-21.2l-115.6,39.4c-6.5,6.6-13,13.2-19.5,19.8c-6.9,2.2-13.8,4.4-20.7,6.5c-48,15-93,35-140,51
				c-21,7-41,10-63,15c-10,2-19,5-28,9c-15,6-31,10-47,15c-72,25-141,52-213,78c-17,6-35,14-52,21c-75,28-149,49-223,80
				c-49,21-102,24-154,40c-31.3,10.4-62.7,19.4-94,29.4l27,75c0,0,404-118.7,425.5-127.3c21.5-8.6,128.7-43.8,128.7-43.8l112.3-37.2
				l186-62.3l288.1-88.2l184.2-51.7l45.7-17.4l134.9-162.1C1480.5,513.3,1431.4,529.5,1382.6,547z"/>
			<g id="XMLID_231_" clip-path="url(#XMLID_5_)">
				<linearGradient id="XMLID_108_" gradientUnits="userSpaceOnUse" x1="251.3763" y1="595.3315" x2="680.3549" y2="115.3555">
					<stop  offset="0" style="stop-color:#FF7F8C"/>
					<stop  offset="0.572" style="stop-color:#FFCFB9"/>
					<stop  offset="1" style="stop-color:#FFECE4"/>
				</linearGradient>
				<path id="XMLID_44_" fill="url(#XMLID_108_)" d="M340.6,464c3,12-3,24-9,35c-12,20-31,39-27,63c0.3,1.6,1.3,2.8,2.5,3.8
					c-0.4-1.6-0.4-3.3,0.2-5c4-12,12.2-22.9,17.2-34.4c7.4-17,16.7-33.4,25-50c1.5-3,3.5-19.4-3.6-18.6c-0.6,0.1-3.2,2.7-6.7,6.5
					C339.7,464.3,340.2,464.3,340.6,464z"/>
				<linearGradient id="XMLID_114_" gradientUnits="userSpaceOnUse" x1="219.3238" y1="566.6845" x2="648.3023" y2="86.7085">
					<stop  offset="0" style="stop-color:#FF7F8C"/>
					<stop  offset="0.572" style="stop-color:#FFCFB9"/>
					<stop  offset="1" style="stop-color:#FFECE4"/>
				</linearGradient>
				<path id="XMLID_38_" fill="url(#XMLID_114_)" d="M279.6,497c-4,17-9,33-9,50c3.4-5.1,7.8-9.9,11.5-15.1
					c0.7-6.4,8.3-40.4,8.4-51.2c0.2-11.5,0-19.9-9.8-20.2c-0.2,0.3-0.3,0.7-0.5,1C283.4,473.5,282.4,484.8,279.6,497z"/>
				<linearGradient id="XMLID_116_" gradientUnits="userSpaceOnUse" x1="210.2339" y1="558.5605" x2="639.2125" y2="78.5845">
					<stop  offset="0" style="stop-color:#FF7F8C"/>
					<stop  offset="0.572" style="stop-color:#FFCFB9"/>
					<stop  offset="1" style="stop-color:#FFECE4"/>
				</linearGradient>
				<path id="XMLID_82_" fill="url(#XMLID_116_)" d="M236.6,571c4.3-4.3,7.1-9.4,9.3-15c0,0,0,0.1-0.1,0.1
					c-2.3-11.9-5.4-27.3-8.2-38.9c-3.9-15.8-10.9-16.1-14.5-15.1c1.6,1.7,2.8,3.8,3.5,5.8C228.6,529,230.6,551,236.6,571z"/>
				<linearGradient id="XMLID_117_" gradientUnits="userSpaceOnUse" x1="226.8542" y1="573.4148" x2="655.8327" y2="93.4388">
					<stop  offset="0" style="stop-color:#FF7F8C"/>
					<stop  offset="0.572" style="stop-color:#FFCFB9"/>
					<stop  offset="1" style="stop-color:#FFECE4"/>
				</linearGradient>
				<path id="XMLID_90_" fill="url(#XMLID_117_)" d="M212.6,615c4.1-4.1,8-9.8,9.5-15.8c-3.5-6.9-7.2-13.5-9.8-16.5
					c-5.3-6.1-11.1-6.6-12.9-4.3C209.7,587.7,210.7,602.7,212.6,615z"/>
				<linearGradient id="XMLID_118_" gradientUnits="userSpaceOnUse" x1="187.4237" y1="826.0252" x2="458.9101" y2="316.0507">
					<stop  offset="0" style="stop-color:#00364F"/>
					<stop  offset="0.2519" style="stop-color:#0F4565"/>
					<stop  offset="1" style="stop-color:#FF7F8C"/>
				</linearGradient>
				<path id="XMLID_111_" fill="url(#XMLID_118_)" d="M234.6,754c1-18,4-37,16-50c28-30,62-49,86-84c12-17,18-34,34-46
					c21.4-17.7,52.3-31.9,58.1-59.5c-2.1,0-4.6,0.3-7.7,0.9c-15,3-37.6,20-42.1,23.9c-4.5,4-18.2,19.3-26.9,23
					c-8.7,3.7-20.1,14.7-29.2,14.2c-7.1-0.3-14.3-5-15.8-10.8c-1.3-1-2.2-2.2-2.5-3.8c-4-24,15-43,27-63c6-11,12-23,9-35
					c-0.3,0.3-0.8,0.3-1.3,0.2c-8,8.8-20.4,23.8-22.6,26.5c-3.1,3.8-34.3,44.7-34.6,42c0-0.2,0-0.5,0-0.9c-3.7,5.2-8.1,10-11.5,15.1
					c0-17,5-33,9-50c2.8-12.2,3.9-23.5,0.7-35.6c-9.8,22.2-14,40.2-14,40.2l-15,46.5c0,0-2.4,3.5-5.4,7.9c-2.2,5.5-5,10.7-9.3,15
					c-6-20-8-42-10-63c-0.7-2-1.8-4.1-3.5-5.8c-1.3,0.4-2.2,0.9-2.2,0.9s-0.3,7.4-0.6,17c-0.4,9.6,2,39,1.6,48.5
					c-0.2,4.7,0.8,17.1,1.9,28.9c-0.4,0.9-0.9,1.7-1.3,2.6c-0.1-0.3-0.3-0.6-0.5-0.9c-1.5,5.9-5.4,11.6-9.5,15.8
					c-1.9-12.3-2.9-27.3-13.2-36.5c-0.5,0.6-0.7,1.3-0.6,2.2c0.4,3.9,10.1,35.8,12.2,42.8c-5,10.3-9.6,19.8-12.2,26
					c-5.5,13-10.2,25.6-12.8,36c0,0,0,0,0,0c-10.5,20.4-21.4,45.3-21.4,60.9s-99.8,299.4-92,299.4c20.4,0,45.7,12.9,65,18.7
					c15.4,4.6,32.7,12.2,48.8,13.5c1.2,0.1,3,0.2,5.2,0.2c0.9-9.7,1.9-19.5,3-29.2C208.6,949,224.6,854,234.6,754z"/>
				<linearGradient id="XMLID_119_" gradientUnits="userSpaceOnUse" x1="389.2202" y1="718.5295" x2="818.1988" y2="238.5535">
					<stop  offset="0" style="stop-color:#FF7F8C"/>
					<stop  offset="0.572" style="stop-color:#FFCFB9"/>
					<stop  offset="1" style="stop-color:#FFECE4"/>
				</linearGradient>
				<path id="XMLID_113_" fill="url(#XMLID_119_)" d="M437,519.6c-0.6-0.7-1-1.5-1.4-2.6C435.9,518.1,436.4,518.9,437,519.6
					c-0.9-3.3-3.4-5.1-8.3-5.1c-5.8,27.6-36.7,41.9-58.1,59.5c-16,12-22,29-34,46c-24,35-58,54-86,84c-12,13-15,32-16,50
					c-10,100-26,195-40,295c-1.1,9.7-2.1,19.5-3,29.2c9.9,0.1,27.3-0.7,31.1-3.8c9.2-7.5,10.6-52,12.6-64
					c3.4-20.4,6.4-40.9,8.9-61.5c4.8-39.9,7.9-80,9.1-120.2c1.1-35.4-5.1-73.4,6.7-107c0.3-0.9,0.7-2.1,1.2-3.6
					c14.9-8,37.7-20.4,53.3-42.4c18.2-25.6,44.1-58.3,48.8-66.5s17.6-18.6,24.5-25.6c6.9-7,29.4-19.1,37.3-29.7s10.4-13.6,12-25.3
					C437.5,524.9,437.6,521.8,437,519.6z"/>
			</g>
			<g id="XMLID_54_" clip-path="url(#XMLID_5_)">
				<linearGradient id="XMLID_120_" gradientUnits="userSpaceOnUse" x1="523.707" y1="338.0483" x2="933.0403" y2="108.0483">
					<stop  offset="0" style="stop-color:#00364F"/>
					<stop  offset="0.2519" style="stop-color:#0F4565"/>
					<stop  offset="1" style="stop-color:#FF7F8C"/>
				</linearGradient>
				<path id="XMLID_139_" fill="url(#XMLID_120_)" d="M852.6,175.3c-27.4-0.2-56.4,8.9-82.4,26c2.1-9.4,5.1-18.5,8.8-27.2
					c0.3-0.6,0.5-1.2,0.8-1.8c13.4-8.5,28.2-15,44.1-18.9c10.3,2.2,18.7,7.6,25.1,16.2C850.3,171.5,851.5,173.3,852.6,175.3z"/>
				<radialGradient id="XMLID_121_" cx="1002.8905" cy="162.6667" r="480.0824" gradientUnits="userSpaceOnUse">
					<stop  offset="0" style="stop-color:#FF7F8C"/>
					<stop  offset="0.7481" style="stop-color:#0F4565"/>
					<stop  offset="1" style="stop-color:#00364F"/>
				</radialGradient>
				<path id="XMLID_140_" fill="url(#XMLID_121_)" d="M779.8,172.4c-0.3,0.6-0.5,1.2-0.8,1.8c-3.8,8.7-6.7,17.8-8.8,27.2
					c-1.7,1.1-3.4,2.3-5.1,3.5c-19.6,13.8-35.8,31-47.4,50.1c-0.6,1-1.2,2-1.8,3.1c2.1-7.3,4.7-14.3,7.8-21.1
					C735.7,210.3,755.3,187.9,779.8,172.4z"/>
				<linearGradient id="XMLID_123_" gradientUnits="userSpaceOnUse" x1="537.5621" y1="362.7063" x2="946.8954" y2="132.7063">
					<stop  offset="0" style="stop-color:#00364F"/>
					<stop  offset="0.2519" style="stop-color:#0F4565"/>
					<stop  offset="1" style="stop-color:#FF7F8C"/>
				</linearGradient>
				<path id="XMLID_137_" fill="url(#XMLID_123_)" d="M862.6,208.7c-26.5,0.2-63.3,19.8-94,49.6c-1.3-8-2-16.2-2-24.5
					c0-10.1,1-19.9,2.9-29.5v0c24.9-16.7,53.8-26.6,82-26.6c0.8,0,1.6,0,2.4,0C858.4,186.8,861.2,197.5,862.6,208.7z"/>
				<radialGradient id="XMLID_124_" cx="1002.8905" cy="162.6667" r="480.0824" gradientUnits="userSpaceOnUse">
					<stop  offset="0" style="stop-color:#FF7F8C"/>
					<stop  offset="0.7481" style="stop-color:#0F4565"/>
					<stop  offset="1" style="stop-color:#00364F"/>
				</radialGradient>
				<path id="XMLID_138_" fill="url(#XMLID_124_)" d="M766.6,233.8c0,8.4,0.7,16.6,2,24.5c-4.4,4.2-8.6,8.7-12.7,13.3
					c-19.5,22.1-32,44.9-36.3,65.4c-0.7,3.5-1.2,6.8-1.5,10.1c-5.2-15.2-8-31.4-8-48.3c0-10.8,1.1-21.4,3.3-31.6
					c0.8-1.5,1.5-3,2.3-4.5v0c12.4-23.3,31.4-43.5,53.7-58.4C767.6,213.9,766.6,223.7,766.6,233.8z"/>
				<linearGradient id="XMLID_125_" gradientUnits="userSpaceOnUse" x1="563.843" y1="409.4788" x2="973.1763" y2="179.4788">
					<stop  offset="0" style="stop-color:#00364F"/>
					<stop  offset="0.2519" style="stop-color:#0F4565"/>
					<stop  offset="1" style="stop-color:#FF7F8C"/>
				</linearGradient>
				<path id="XMLID_136_" fill="url(#XMLID_125_)" d="M858.9,285.7c-29.1,5.9-50.6,19.3-65.8,33.2c-11.7-17-20.1-36.5-23.9-57.6
					c12.9-12.7,27.5-24,42-32.6c19.3-11.5,37.2-17.5,51.8-17.5C866.7,244.2,860,280,858.9,285.7z"/>
				<radialGradient id="XMLID_126_" cx="1002.8905" cy="162.6667" r="480.0824" gradientUnits="userSpaceOnUse">
					<stop  offset="0" style="stop-color:#FF7F8C"/>
					<stop  offset="0.7481" style="stop-color:#0F4565"/>
					<stop  offset="1" style="stop-color:#00364F"/>
				</radialGradient>
				<path id="XMLID_141_" fill="url(#XMLID_126_)" d="M793.1,318.8c-6.5,5.9-11.9,12-16.3,17.5c-14.1,18-23.5,39.3-25.3,56.7
					c-0.3,2.8-0.4,5.5-0.3,8.1c0,0.3,0,0.7,0.1,1c-13.3-14-23.9-30.5-31-48.8c0-0.3,0-0.5,0-0.8c0-3.5,0.3-7,0.9-10.6
					c3.3-21.2,16-45.3,36.6-68.6c3.6-4.1,7.4-8.1,11.4-12C773,282.3,781.3,301.8,793.1,318.8z"/>
				<radialGradient id="XMLID_127_" cx="1036.8905" cy="222" r="188.9868" gradientUnits="userSpaceOnUse">
					<stop  offset="0" style="stop-color:#FFECE4"/>
					<stop  offset="0.428" style="stop-color:#FFCFB9"/>
					<stop  offset="1" style="stop-color:#FF7F8C"/>
				</radialGradient>
				<path id="XMLID_79_" fill="url(#XMLID_127_)" d="M924,328.2c-24.3-9.7-47.3-25-62.8-41.9c0.7-3.6,4.3-22.4,5.1-44.7
					c1.2-33.2-4-57.9-15.5-73.4c-5.8-7.8-13.2-13.1-22-15.9c10-2.1,20.4-3.2,31.1-3.2c14.7,0,28.9,2.1,42.4,6.1
					C935.9,191.1,944,255.2,924,328.2z"/>
				<radialGradient id="XMLID_128_" cx="1036.8905" cy="222" r="188.9868" gradientUnits="userSpaceOnUse">
					<stop  offset="0" style="stop-color:#FFECE4"/>
					<stop  offset="0.428" style="stop-color:#FFCFB9"/>
					<stop  offset="1" style="stop-color:#FF7F8C"/>
				</radialGradient>
				<path id="XMLID_75_" fill="url(#XMLID_128_)" d="M958.6,337.8c-8.8-1.3-18-3.6-27.5-6.9c-1.7-0.6-3.3-1.2-5-1.8
					c9.8-35.9,13.1-70.7,9.5-100.9c-3.5-29.5-13.3-53.5-29-71.6c21.9,7.2,41.7,19.4,57.8,35.1c0,0,0,0,0,0
					c8.4,14.4,13.8,37.1,14.4,63.2C979.9,289.7,972.3,320.6,958.6,337.8z"/>
				<radialGradient id="XMLID_129_" cx="1036.8815" cy="222.002" r="188.9869" gradientUnits="userSpaceOnUse">
					<stop  offset="0" style="stop-color:#FFECE4"/>
					<stop  offset="0.428" style="stop-color:#FFCFB9"/>
					<stop  offset="1" style="stop-color:#FF7F8C"/>
				</radialGradient>
				<path id="XMLID_196_" fill="url(#XMLID_129_)" d="M1009.7,298.9c0,2.7-0.1,5.5-0.2,8.1c-0.3,4.8-0.7,9.5-1.4,14.1
					c-0.6,3.9-1.3,7.8-2.2,11.6c-9.1,4.2-19.7,6.3-31.4,6.3c-0.9,0-1.8,0-2.6,0c-0.7,0-1.5,0-2.2-0.1h-0.1c-0.4,0-0.7,0-1.1-0.1
					c-0.4,0-0.9,0-1.3-0.1c-0.4,0-0.9-0.1-1.4-0.1c-0.6,0-1.2-0.1-1.8-0.2c-0.1,0-0.2,0-0.4,0c0,0,0,0,0,0c-0.8-0.1-1.5-0.2-2.3-0.3
					c0.4-0.6,0.9-1.2,1.3-1.8c0,0,0,0,0,0c0.7-1,1.4-2.1,2.1-3.2c0.1-0.1,0.1-0.2,0.2-0.3c0.2-0.4,0.5-0.8,0.7-1.2
					c0.7-1.2,1.4-2.4,2-3.7c0.2-0.3,0.3-0.7,0.5-1c0.5-0.9,0.9-1.9,1.3-2.8c0.2-0.4,0.4-0.9,0.6-1.3c0.7-1.5,1.3-3.1,1.9-4.8
					c0.2-0.5,0.4-0.9,0.5-1.4c0.4-1.1,0.8-2.2,1.2-3.4c0.2-0.5,0.3-1,0.5-1.4c0.2-0.5,0.4-1.1,0.5-1.6c0.2-0.6,0.3-1.1,0.5-1.7
					c0.2-0.5,0.3-1.1,0.4-1.6c0,0,0-0.1,0-0.2c0.2-0.5,0.3-1.1,0.4-1.7c0.2-0.6,0.3-1.2,0.4-1.7c0.3-1.2,0.6-2.4,0.8-3.5
					c0.3-1.2,0.5-2.4,0.8-3.6c0.1-0.4,0.2-0.9,0.3-1.3c0.1-0.5,0.2-1,0.3-1.5c0.2-0.8,0.3-1.6,0.4-2.5c0.1-0.7,0.2-1.4,0.3-2.1
					c0.1-0.9,0.3-1.8,0.4-2.7c0.2-1.3,0.3-2.5,0.5-3.8c0.1-0.8,0.2-1.7,0.3-2.5c0.1-1,0.2-2,0.3-3.1c0.1-1,0.2-2,0.2-3
					c0-0.4,0.1-0.8,0.1-1.1v0c0-0.4,0.1-0.8,0.1-1.3c0-0.5,0.1-1,0.1-1.6c0-0.6,0.1-1.2,0.1-1.8c0-0.3,0-0.6,0-0.9
					c0-0.9,0-1.9,0.1-2.8c0-0.5,0-1.1,0-1.6c0-2.2,0-4.5,0-6.7c0-0.3,0-0.7,0-1c-0.6-22.5-4.7-42.7-11.2-57.3
					c6.6,7.2,12.5,15,17.6,23.4c2.8,4.6,5.3,9.3,7.6,14.1c4,8.4,7.2,17.3,9.6,26.5c1.7,6.5,2.9,13.1,3.7,19.9
					C1009.4,287.2,1009.7,293,1009.7,298.9z"/>
				<linearGradient id="XMLID_130_" gradientUnits="userSpaceOnUse" x1="830.4471" y1="448.2882" x2="996.4471" y2="176.2883">
					<stop  offset="0" style="stop-color:#00364F"/>
					<stop  offset="0.2519" style="stop-color:#0F4565"/>
					<stop  offset="1" style="stop-color:#FF7F8C"/>
				</linearGradient>
				<path id="XMLID_135_" fill="url(#XMLID_130_)" d="M1005.2,335.7c-6.1,24.1-18,45.9-34.2,63.8c-1.3,0.3-2.7,0.5-4.2,0.7
					c11.8-11.4,21.7-24.7,29.3-39.5c-23.1,14.5-50.4,22.9-79.7,22.9c-22.4,0-43.6-4.9-62.7-13.7c0,0,0,0,0,0
					c-6.7-3.4-13.1-7-19.3-10.7c-15.6-10.2-29.1-23.2-39.9-38.4c15-13.7,36.2-27,65.1-32.8c17.2,18.7,43.7,35.6,70.9,45.2
					c15.7,5.5,30.6,8.3,44.1,8.3C985.8,341.4,996.2,339.5,1005.2,335.7z"/>
				<radialGradient id="XMLID_131_" cx="992.2238" cy="-97.3333" r="609.4154" gradientUnits="userSpaceOnUse">
					<stop  offset="0" style="stop-color:#FF7F8C"/>
					<stop  offset="0.7481" style="stop-color:#0F4565"/>
					<stop  offset="1" style="stop-color:#00364F"/>
				</radialGradient>
				<path id="XMLID_142_" fill="url(#XMLID_131_)" d="M834.4,359.1c-17.3-10.4-32.6-21.9-44.7-33.8c1.5-1.5,3.1-3.1,4.8-4.6
					C805.3,335.9,818.8,349,834.4,359.1z"/>
				<radialGradient id="XMLID_132_" cx="992.2238" cy="-97.3333" r="609.4154" gradientUnits="userSpaceOnUse">
					<stop  offset="0" style="stop-color:#FF7F8C"/>
					<stop  offset="0.7481" style="stop-color:#0F4565"/>
					<stop  offset="1" style="stop-color:#00364F"/>
				</radialGradient>
				<path id="XMLID_153_" fill="url(#XMLID_132_)" d="M996,360.6c-7.5,14.8-17.5,28.1-29.3,39.5c-19.1,2.4-48.1-3.2-80.1-15.5
					c-11.3-4.4-22.4-9.3-33-14.7c19.1,8.8,40.3,13.7,62.7,13.7C945.6,383.6,972.9,375.2,996,360.6z"/>
				<radialGradient id="XMLID_133_" cx="992.2238" cy="-97.3333" r="609.4154" gradientUnits="userSpaceOnUse">
					<stop  offset="0" style="stop-color:#FF7F8C"/>
					<stop  offset="0.7481" style="stop-color:#0F4565"/>
					<stop  offset="1" style="stop-color:#00364F"/>
				</radialGradient>
				<path id="XMLID_43_" fill="url(#XMLID_133_)" d="M968.3,402.3c-15.4,16.1-34.3,28.8-55.5,36.8c0,0,0,0,0,0
					c-35.3,5.5-89.1-13.1-146.1-83c3.5-6.3,7.5-12.5,12.1-18.3c2.7-3.4,5.8-7.1,9.3-10.7c23.6,23.1,59.2,44.8,97.8,59.7
					c27.5,10.6,52.8,16.2,71.8,16.2C961.4,403,965,402.8,968.3,402.3z"/>
				<radialGradient id="XMLID_144_" cx="992.2238" cy="-97.3333" r="609.4154" gradientUnits="userSpaceOnUse">
					<stop  offset="0" style="stop-color:#FF7F8C"/>
					<stop  offset="0.7481" style="stop-color:#0F4565"/>
					<stop  offset="1" style="stop-color:#00364F"/>
				</radialGradient>
				<path id="XMLID_42_" fill="url(#XMLID_144_)" d="M903.4,442.3c-13.8,4.2-28.3,6.4-43.5,6.4c-41.3,0-78.8-16.8-105.9-43.8
					c-0.2-1.4-0.3-2.7-0.4-3.9c-0.6-12.2,3.8-27.5,11.7-42.6c31.8,38.7,64.4,64.5,97.1,76.6c13.1,4.9,26.2,7.3,38.3,7.3
					C901.7,442.3,902.5,442.3,903.4,442.3z"/>
				<radialGradient id="XMLID_145_" cx="923.3051" cy="215.5059" r="299.2769" gradientUnits="userSpaceOnUse">
					<stop  offset="0" style="stop-color:#FF7F8C"/>
					<stop  offset="0.7481" style="stop-color:#0F4565"/>
					<stop  offset="1" style="stop-color:#00364F"/>
				</radialGradient>
				<path id="XMLID_89_" fill="url(#XMLID_145_)" d="M997.1,358.4c-23,53.1-75.9,90.2-137.4,90.2c-82.7,0-149.8-67.1-149.8-149.8
					c0-23.7,5.5-46.1,15.3-66c-8,18.3-12.4,38.5-12.4,59.7c0,82.7,67,149.8,149.8,149.8C921.7,442.3,972.8,408.1,997.1,358.4z"/>
				<path id="XMLID_466_" fill="#00364F" d="M1005.9,332.7c-0.2,1-0.5,2-0.7,2.9c-9,3.8-19.3,5.8-30.6,5.8
					c-13.5,0-28.5-2.8-44.1-8.3c-26.4-9.3-52.1-25.4-69.3-43.5c-1-1.1-2.6-1.5-4-1.2c-29.6,6.4-50.9,20.8-65.7,35.1
					c-1,1-1,2.6,0,3.5c23.4,22.2,57.8,43,95.2,57.4c34.5,13.3,65.4,18.7,84.3,14.9c-0.9,1-1.8,1.9-2.7,2.9
					c-3.3,0.5-6.9,0.7-10.7,0.7c-19,0-44.3-5.6-71.8-16.2c-37.7-14.5-72.4-35.5-96-58c-1-0.9-2.6-0.9-3.5,0.1c-2.8,3-5.3,6-7.6,8.9
					c-4,5.1-7.5,10.4-10.7,15.8c-0.9,1.5-0.7,3.4,0.4,4.8c56.4,68,109.3,86.2,144.3,80.7c-3,1.2-6.1,2.2-9.3,3.2c0,0,0,0,0,0
					c-0.9,0-1.7,0-2.6,0c-12.1,0-25.2-2.4-38.3-7.3c-32.1-11.9-64.2-37-95.5-74.6c-0.8-0.9-2.3-0.8-2.8,0.3
					c-7.1,14.3-11,28.7-10.5,40.2c0.1,1.2,0.2,2.5,0.4,3.9c-0.9-0.9-1.8-1.8-2.7-2.8c0-0.3,0-0.7-0.1-1
					c-0.8-18.4,9.2-43.8,25.5-64.7c14.2-18.2,39.5-41.4,79.8-50.2c1.4-0.3,2.5-1.4,2.7-2.9c1.8-9.6,6.6-39.8,3.9-68.8
					c-0.2-2-1.9-3.4-3.8-3.3c-13.9,0.9-30.5,6.8-48.3,17.4c-19,11.3-37.9,27.1-53.4,44.6c-24.4,27.6-37.7,56.3-37.4,80
					c-0.8-2-1.5-4-2.2-6v0c1.8-23.1,15-49.8,37.8-75.6c31.4-35.5,72.7-60.6,102.8-62.8c2.1-0.2,3.6-2.1,3.3-4.1
					c-1.4-8.9-3.7-17.4-7.1-24.9c-0.6-1.3-1.9-2.1-3.3-2.1h0c-55.1,0-112.7,38-138,89.6c0.7-3.2,1.5-6.3,2.3-9.4
					c11.7-20.2,28.6-38.6,49.2-53.1c26.2-18.5,55.7-28.8,83.8-29.5c1.8,0,2.8-2.1,1.8-3.5l-1.6-2.1c-6.4-8.6-14.8-14-25.1-16.2
					c1.7-0.4,3.3-0.8,5-1.2c8.9,2.8,16.2,8.1,22,15.9c11.5,15.5,16.7,40.1,15.5,73.4c-0.7,19.4-3.5,36.2-4.7,42.6
					c-0.3,1.4,0.2,2.8,1.1,3.8c15,15.7,36.5,30,59.3,39.5c1,0.4,2.2-0.2,2.5-1.2c19.3-72.1,11-135.5-22.2-171c1.5,0.4,3,0.9,4.5,1.4
					h0c15.7,18.1,25.4,42.1,29,71.6c3.6,29.7,0.4,64-9.1,99.3c-0.2,0.9,0.2,1.9,1.1,2.2c1.1,0.4,2.3,0.8,3.4,1.2
					c8.6,3,17,5.2,25,6.5c1.5,0.3,3.1-0.3,4-1.6c12.7-17.6,19.8-47.5,18.9-80.9c-0.7-26-6-48.7-14.4-63.2c1.9,1.9,3.8,3.8,5.6,5.8
					c6.6,14.6,10.7,34.8,11.2,57.3c0.9,33.4-6.1,63.4-18.7,81.5c-0.6,0.9-0.1,2,1,2.1C979.7,340.1,994.1,338.2,1005.9,332.7z"/>
			</g>
			<linearGradient id="XMLID_147_" gradientUnits="userSpaceOnUse" x1="1083.8868" y1="252.7395" x2="840.7261" y2="330.7845">
				<stop  offset="0" style="stop-color:#00364F"/>
				<stop  offset="0.2519" style="stop-color:#0F4565"/>
				<stop  offset="1" style="stop-color:#FF7F8C"/>
			</linearGradient>
			<path id="XMLID_165_" clip-path="url(#XMLID_5_)" fill="url(#XMLID_147_)" d="M1009.7,298.9c0,2.7-0.1,5.5-0.2,8.1
				c-1.5-1.3-2.5-2.4-2.6-3.1c0-0.9-11.4-14.4-20.8-25.3c-1.6-1.9-3.1-3.7-4.5-5.3c-0.2-0.2-0.3-0.4-0.5-0.6v0
				c-0.9-1.2-1.6-2.4-2.2-3.8v0c-1.4-3.3-1.5-6.9,0.2-10c0.6-1.1,1.3-2,2.3-3c1.8-1.6,4.1-2.2,6.7-2c5.6,0.4,12.3,4.5,16.9,7.7
				c1.7,6.5,2.9,13.1,3.7,19.9C1009.4,287.2,1009.7,293,1009.7,298.9z"/>
			<g id="XMLID_282_" clip-path="url(#XMLID_5_)">
				<linearGradient id="XMLID_149_" gradientUnits="userSpaceOnUse" x1="549.9913" y1="388.0532" x2="563.6797" y2="326.6405">
					<stop  offset="0" style="stop-color:#FF7F8C"/>
					<stop  offset="0.572" style="stop-color:#FFCFB9"/>
					<stop  offset="1" style="stop-color:#FFECE4"/>
				</linearGradient>
				<path id="XMLID_7_" fill="url(#XMLID_149_)" d="M540.6,443c7.9-7.9,14.1-17.1,19.3-26.7c-1.7,2.1-2.9,3.3-2.9,3.3
					c2.1-2.3-2.9-20.4-3.3-23.6c-1.3-9.7,3.9-19.5-6.9-25.6c-2.6-1.5-5.5-2.3-8.5-2.6c0.2,0.4,0.3,0.8,0.3,1.2
					C544.6,395,544.6,419,540.6,443z"/>
				<linearGradient id="XMLID_150_" gradientUnits="userSpaceOnUse" x1="616.813" y1="353.3016" x2="632.0338" y2="285.0139">
					<stop  offset="0" style="stop-color:#FF7F8C"/>
					<stop  offset="0.572" style="stop-color:#FFCFB9"/>
					<stop  offset="1" style="stop-color:#FFECE4"/>
				</linearGradient>
				<path id="XMLID_37_" fill="url(#XMLID_150_)" d="M616.6,340c-17,22-12,48-21,72c7.3-5.7,17.9-10.7,21.6-19.3
					c-1.3,2-2.1,3.2-2.1,3.2c2.9-4.5,2.4-15.7,3.2-21c0.8-5.2,1-11.1,2.8-16c2.2-5.8,6.9-10.1,4.8-16.9c-1.3-4.5-5.5-7.5-10.2-8.7
					C616.9,335.5,617.3,337.8,616.6,340z"/>
				<linearGradient id="XMLID_152_" gradientUnits="userSpaceOnUse" x1="441.7775" y1="544.0067" x2="453.8687" y2="489.7593">
					<stop  offset="0" style="stop-color:#FF7F8C"/>
					<stop  offset="0.572" style="stop-color:#FFCFB9"/>
					<stop  offset="1" style="stop-color:#FFECE4"/>
				</linearGradient>
				<path id="XMLID_11_" fill="url(#XMLID_152_)" d="M440.6,565c13.7-7.2,23.2-17.9,30.5-30.2c-2.6,3.3-4.5,5.6-5.1,6.3
					c-3.2,3.8-12.8,7.6-19,9.9c-6.5,2.4-11.6,8.5-17,12.6c-7.3,5.6-14.5,10.5-22.5,15.2c-0.3,0.2-0.6,0.3-0.7,0.6
					c-0.3,0.5,0,1.2,0.2,1.8c1.1,2.2,2.1,4.2,3.3,6.2c6.6-2.1,12.5-6,18.3-10.4C432.6,574,436.6,568,440.6,565z"/>
				<linearGradient id="XMLID_157_" gradientUnits="userSpaceOnUse" x1="673.3511" y1="560.4832" x2="792.0536" y2="27.9261">
					<stop  offset="0" style="stop-color:#FF7F8C"/>
					<stop  offset="0.572" style="stop-color:#FFCFB9"/>
					<stop  offset="1" style="stop-color:#FFECE4"/>
				</linearGradient>
				<path id="XMLID_110_" fill="url(#XMLID_157_)" d="M682.6,431c-27,40-46,79-79,114c-11,12-10,31-8,48c3,25,4,49,2,73
					c-7,95,7,188,1,283c-1.9,29.4-6.3,58.3-13.2,86.6c17.6,1.6,35.1,2.9,52.8,3.4c2,0.1,4.3,0,5.7-1.4c1.3-1.3,1.5-3.4,1.7-5.2
					c4.1-70.4,2.7-141.2-4.1-211.4c-5.9-60.6-28.4-126.1-22.6-186.6c3.4-35.8,1.1-34.4,3.4-62c0.8-9.9,4-19.2,7.5-27.3
					c11.9-12.4,23.4-25.9,27.5-33.8c8.4-16.1,38.2-89.4,38.2-89.4s3.5-4.7,7.3-9.3C694.8,417.5,687.4,423,682.6,431z"/>
				<linearGradient id="XMLID_159_" gradientUnits="userSpaceOnUse" x1="669.9547" y1="346.3844" x2="683.2451" y2="286.7574">
					<stop  offset="0" style="stop-color:#FF7F8C"/>
					<stop  offset="0.572" style="stop-color:#FFCFB9"/>
					<stop  offset="1" style="stop-color:#FFECE4"/>
				</linearGradient>
				<path id="XMLID_204_" fill="url(#XMLID_159_)" d="M639.6,395c7.5,1.1,14.4-1.3,20.7-5.1c-1.4,0.4-2.3,0.7-2.3,0.7
					c4.5-8.9,9.2-17.8,14-26.6c3.3-6,6.6-12.1,10.3-17.9c3-4.8,6.5-8.1,10-12C670,350.3,653.1,370.6,639.6,395z"/>
				<linearGradient id="XMLID_160_" gradientUnits="userSpaceOnUse" x1="513.6" y1="769.8712" x2="804.5854" y2="3.4095">
					<stop  offset="0" style="stop-color:#00364F"/>
					<stop  offset="0.2519" style="stop-color:#0F4565"/>
					<stop  offset="1" style="stop-color:#FF7F8C"/>
				</linearGradient>
				<path id="XMLID_205_" fill="url(#XMLID_160_)" d="M761.6,342.7c-0.5-0.5-1.1-1.1-1.8-1.1c-0.5,0-1,0.3-1.5,0.5
					c-12.6,7.3-25.6,12.4-38.7,18.8c-8.9,4.3-20.9,8.6-28,15.8c-5,5.1-24.7,11.1-31.5,13.1c-6.2,3.8-13.1,6.2-20.7,5.1
					c13.6-24.4,30.4-44.7,52.7-60.9c0.8-0.9,1.6-1.8,2.5-2.8c2.4-2.8,4-6.3,3.9-9.9c-0.2-3.3-1.8-6.3-3.3-9.1
					c-0.3-0.5-0.6-1.1-1.2-1.3c-0.5-0.2-1.1,0-1.7,0.2c-10.8,4.2-20.6,9.4-29.2,17.4c-10.5,9.8-38.3,52.1-46.1,64.1
					c-3.7,8.6-14.3,13.6-21.6,19.3c9-24,4-50,21-72c0.7-2.2,0.4-4.5-0.7-6.7c-2.2-0.6-4.5-0.7-6.7-0.5c-0.5,0-1,0.1-1.4,0.4
					c-0.4,0.3-0.6,0.8-0.9,1.2c-7.9,15.8-24.7,31-26.9,49.3c-1.2,9.4-14.2,25.7-20.1,32.6c-5.3,9.6-11.4,18.8-19.3,26.7
					c4-24,4-48-2-74c0-0.4-0.1-0.8-0.3-1.2c-2.5-0.3-5-0.2-7.4,0.1c-0.6,0.1-1.3,0.2-1.7,0.6c-0.4,0.4-0.5,1.1-0.5,1.7
					c-0.6,7.6-0.1,15.3-2,22.6c-1.7,6.6-3.2,13.2-4.7,19.9c-2.3,9.9-8.4,56.6-10.7,65.7c-1.9,7.5-28.6,41.8-40.2,56.4
					c-7.3,12.4-16.7,23.1-30.5,30.2c-4,3-8,9-12,12c-5.8,4.4-11.7,8.2-18.3,10.4c3.6,6.1,7.9,10.7,16,11.2
					c10.6,0.7,20.4-3.7,29.9-7.8c10.7-4.6,8.4-6.1,20.6-6.1c8.7,0,26.8,3.1,37.2,4.9c-6.2,32.3-83.2,433.3-78.8,432
					c20.6-6,55.8,4.5,76.7,6.5c24.5,2.4,48.9,5.3,73.4,7.5c6.9-28.3,11.3-57.2,13.2-86.6c6-95-8-188-1-283c2-24,1-48-2-73
					c-2-17-3-36,8-48c33-35,52-74,79-114c4.8-8,12.2-13.5,20.2-18.4c3-3.7,6.3-7.3,8-8.3c8.4-5.1,16-13,23.4-19.4
					c5.7-5,11.5-10,17-15.1c5-4.6,12.4-8.2,13.8-15.3C765.7,350.4,764.4,345.9,761.6,342.7z"/>
			</g>
		</g>
	</g>
</g>
</svg>
